<?xml version="1.0" encoding="UTF-8" standalone="no"?>
<!DOCTYPE svg PUBLIC "-//W3C//DTD SVG 1.1//EN"
 "http://www.w3.org/Graphics/SVG/1.1/DTD/svg11.dtd">
<!-- Generated by graphviz version 2.40.1 (20161225.0304)
 -->
<!-- Title: snakemake_dag Pages: 1 -->
<svg width="829pt" height="1700pt"
 viewBox="0.00 0.00 829.45 1700.00" xmlns="http://www.w3.org/2000/svg" xmlns:xlink="http://www.w3.org/1999/xlink">
<g id="graph0" class="graph" transform="scale(1 1) rotate(0) translate(4 1696)">
<title>snakemake_dag</title>
<polygon fill="#ffffff" stroke="transparent" points="-4,4 -4,-1696 825.4536,-1696 825.4536,4 -4,4"/>
<!-- 0 -->
<g id="node1" class="node">
<title>0</title>
<path fill="none" stroke="#d86656" stroke-width="2" d="M254,-36C254,-36 224,-36 224,-36 218,-36 212,-30 212,-24 212,-24 212,-12 212,-12 212,-6 218,0 224,0 224,0 254,0 254,0 260,0 266,-6 266,-12 266,-12 266,-24 266,-24 266,-30 260,-36 254,-36"/>
<text text-anchor="middle" x="239" y="-15" font-family="sans" font-size="10.00" fill="#000000">all</text>
</g>
<!-- 1 -->
<g id="node2" class="node">
<title>1</title>
<path fill="none" stroke="#d8bc56" stroke-width="2" d="M286.2855,-180C286.2855,-180 191.7145,-180 191.7145,-180 185.7145,-180 179.7145,-174 179.7145,-168 179.7145,-168 179.7145,-156 179.7145,-156 179.7145,-150 185.7145,-144 191.7145,-144 191.7145,-144 286.2855,-144 286.2855,-144 292.2855,-144 298.2855,-150 298.2855,-156 298.2855,-156 298.2855,-168 298.2855,-168 298.2855,-174 292.2855,-180 286.2855,-180"/>
<text text-anchor="middle" x="239" y="-159" font-family="sans" font-size="10.00" fill="#000000">PopulationStratification</text>
</g>
<!-- 1&#45;&gt;0 -->
<g id="edge1" class="edge">
<title>1&#45;&gt;0</title>
<path fill="none" stroke="#c0c0c0" stroke-width="2" d="M239,-143.7623C239,-119.201 239,-75.2474 239,-46.3541"/>
<polygon fill="#c0c0c0" stroke="#c0c0c0" stroke-width="2" points="242.5001,-46.0896 239,-36.0896 235.5001,-46.0897 242.5001,-46.0896"/>
</g>
<!-- 3 -->
<g id="node4" class="node">
<title>3</title>
<path fill="none" stroke="#56a9d8" stroke-width="2" d="M153.3287,-108C153.3287,-108 74.6713,-108 74.6713,-108 68.6713,-108 62.6713,-102 62.6713,-96 62.6713,-96 62.6713,-84 62.6713,-84 62.6713,-78 68.6713,-72 74.6713,-72 74.6713,-72 153.3287,-72 153.3287,-72 159.3287,-72 165.3287,-78 165.3287,-84 165.3287,-84 165.3287,-96 165.3287,-96 165.3287,-102 159.3287,-108 153.3287,-108"/>
<text text-anchor="middle" x="114" y="-87" font-family="sans" font-size="10.00" fill="#000000">GWAS_QC_Report</text>
</g>
<!-- 1&#45;&gt;3 -->
<g id="edge11" class="edge">
<title>1&#45;&gt;3</title>
<path fill="none" stroke="#c0c0c0" stroke-width="2" d="M207.4572,-143.8314C191.3209,-134.5368 171.5014,-123.1208 154.2728,-113.1971"/>
<polygon fill="#c0c0c0" stroke="#c0c0c0" stroke-width="2" points="155.945,-110.1212 145.5327,-108.1628 152.4511,-116.187 155.945,-110.1212"/>
</g>
<!-- 2 -->
<g id="node3" class="node">
<title>2</title>
<path fill="none" stroke="#56d873" stroke-width="2" d="M665.2046,-180C665.2046,-180 596.7954,-180 596.7954,-180 590.7954,-180 584.7954,-174 584.7954,-168 584.7954,-168 584.7954,-156 584.7954,-156 584.7954,-150 590.7954,-144 596.7954,-144 596.7954,-144 665.2046,-144 665.2046,-144 671.2046,-144 677.2046,-150 677.2046,-156 677.2046,-156 677.2046,-168 677.2046,-168 677.2046,-174 671.2046,-180 665.2046,-180"/>
<text text-anchor="middle" x="631" y="-159" font-family="sans" font-size="10.00" fill="#000000">SampleExclusion</text>
</g>
<!-- 2&#45;&gt;0 -->
<g id="edge2" class="edge">
<title>2&#45;&gt;0</title>
<path fill="none" stroke="#c0c0c0" stroke-width="2" d="M584.4931,-144.9158C505.659,-115.9564 347.3851,-57.8149 275.735,-31.4945"/>
<polygon fill="#c0c0c0" stroke="#c0c0c0" stroke-width="2" points="276.8107,-28.161 266.2171,-27.9981 274.3969,-34.7317 276.8107,-28.161"/>
</g>
<!-- 3&#45;&gt;0 -->
<g id="edge3" class="edge">
<title>3&#45;&gt;0</title>
<path fill="none" stroke="#c0c0c0" stroke-width="2" d="M145.5428,-71.8314C162.9109,-61.8273 184.5459,-49.3655 202.6246,-38.9522"/>
<polygon fill="#c0c0c0" stroke="#c0c0c0" stroke-width="2" points="204.7947,-41.7414 211.713,-33.7173 201.3008,-35.6757 204.7947,-41.7414"/>
</g>
<!-- 4 -->
<g id="node5" class="node">
<title>4</title>
<path fill="none" stroke="#56d882" stroke-width="2" d="M547.7904,-252C547.7904,-252 438.2096,-252 438.2096,-252 432.2096,-252 426.2096,-246 426.2096,-240 426.2096,-240 426.2096,-228 426.2096,-228 426.2096,-222 432.2096,-216 438.2096,-216 438.2096,-216 547.7904,-216 547.7904,-216 553.7904,-216 559.7904,-222 559.7904,-228 559.7904,-228 559.7904,-240 559.7904,-240 559.7904,-246 553.7904,-252 547.7904,-252"/>
<text text-anchor="middle" x="493" y="-231" font-family="sans" font-size="10.00" fill="#000000">ExcludePopulationOutliers</text>
</g>
<!-- 4&#45;&gt;1 -->
<g id="edge4" class="edge">
<title>4&#45;&gt;1</title>
<path fill="none" stroke="#c0c0c0" stroke-width="2" d="M429.2329,-215.9243C392.4058,-205.4851 346.0548,-192.3462 308.3259,-181.6514"/>
<polygon fill="#c0c0c0" stroke="#c0c0c0" stroke-width="2" points="309.0063,-178.2065 298.4308,-178.8465 307.0972,-184.9411 309.0063,-178.2065"/>
</g>
<!-- 4&#45;&gt;2 -->
<g id="edge6" class="edge">
<title>4&#45;&gt;2</title>
<path fill="none" stroke="#c0c0c0" stroke-width="2" d="M527.8232,-215.8314C545.8011,-206.4516 567.9203,-194.9112 587.0616,-184.9244"/>
<polygon fill="#c0c0c0" stroke="#c0c0c0" stroke-width="2" points="588.9411,-187.8916 596.1879,-180.1628 585.7031,-181.6855 588.9411,-187.8916"/>
</g>
<!-- 5 -->
<g id="node6" class="node">
<title>5</title>
<path fill="none" stroke="#8fd856" stroke-width="2" d="M416.8749,-1404C416.8749,-1404 361.1251,-1404 361.1251,-1404 355.1251,-1404 349.1251,-1398 349.1251,-1392 349.1251,-1392 349.1251,-1380 349.1251,-1380 349.1251,-1374 355.1251,-1368 361.1251,-1368 361.1251,-1368 416.8749,-1368 416.8749,-1368 422.8749,-1368 428.8749,-1374 428.8749,-1380 428.8749,-1380 428.8749,-1392 428.8749,-1392 428.8749,-1398 422.8749,-1404 416.8749,-1404"/>
<text text-anchor="middle" x="389" y="-1383" font-family="sans" font-size="10.00" fill="#000000">sample_prune</text>
</g>
<!-- 5&#45;&gt;1 -->
<g id="edge5" class="edge">
<title>5&#45;&gt;1</title>
<path fill="none" stroke="#c0c0c0" stroke-width="2" d="M349.3063,-1383.2393C273.1504,-1375.5598 114,-1346.9556 114,-1242 114,-1242 114,-1242 114,-450 114,-345.8762 183.604,-236.7816 218.9334,-188.1142"/>
<polygon fill="#c0c0c0" stroke="#c0c0c0" stroke-width="2" points="221.787,-190.1416 224.9039,-180.0157 216.1526,-185.9878 221.787,-190.1416"/>
</g>
<!-- 5&#45;&gt;3 -->
<g id="edge16" class="edge">
<title>5&#45;&gt;3</title>
<path fill="none" stroke="#c0c0c0" stroke-width="2" d="M349.1297,-1381.6966C285.3125,-1374.162 163.8531,-1356.9706 129,-1332 91.2648,-1304.9645 76,-1288.4205 76,-1242 76,-1242 76,-1242 76,-234 76,-192.3681 91.0328,-146.14 102.1881,-117.567"/>
<polygon fill="#c0c0c0" stroke="#c0c0c0" stroke-width="2" points="105.4578,-118.817 105.9412,-108.2332 98.9632,-116.2055 105.4578,-118.817"/>
</g>
<!-- 5&#45;&gt;4 -->
<g id="edge18" class="edge">
<title>5&#45;&gt;4</title>
<path fill="none" stroke="#c0c0c0" stroke-width="2" d="M385.0632,-1367.9156C379.498,-1340.7281 370,-1287.6422 370,-1242 370,-1242 370,-1242 370,-1026 370,-978.6526 389.0284,-964.2831 427,-936 474.3937,-900.6987 514.6166,-943.1455 555,-900 582.9365,-870.1527 574,-850.8816 574,-810 574,-810 574,-810 574,-378 574,-331.7913 541.9238,-286.7153 518.1416,-259.6452"/>
<polygon fill="#c0c0c0" stroke="#c0c0c0" stroke-width="2" points="520.6845,-257.2389 511.3802,-252.1713 515.4935,-261.9351 520.6845,-257.2389"/>
</g>
<!-- 12 -->
<g id="node13" class="node">
<title>12</title>
<path fill="none" stroke="#5663d8" stroke-width="2" d="M512.2611,-1332C512.2611,-1332 447.7389,-1332 447.7389,-1332 441.7389,-1332 435.7389,-1326 435.7389,-1320 435.7389,-1320 435.7389,-1308 435.7389,-1308 435.7389,-1302 441.7389,-1296 447.7389,-1296 447.7389,-1296 512.2611,-1296 512.2611,-1296 518.2611,-1296 524.2611,-1302 524.2611,-1308 524.2611,-1308 524.2611,-1320 524.2611,-1320 524.2611,-1326 518.2611,-1332 512.2611,-1332"/>
<text text-anchor="middle" x="480" y="-1311" font-family="sans" font-size="10.00" fill="#000000">relatedness_QC</text>
</g>
<!-- 5&#45;&gt;12 -->
<g id="edge28" class="edge">
<title>5&#45;&gt;12</title>
<path fill="none" stroke="#c0c0c0" stroke-width="2" d="M411.9631,-1367.8314C423.1715,-1358.9632 436.8209,-1348.1637 448.9439,-1338.5718"/>
<polygon fill="#c0c0c0" stroke="#c0c0c0" stroke-width="2" points="451.3737,-1341.1125 457.0442,-1332.1628 447.0303,-1335.6229 451.3737,-1341.1125"/>
</g>
<!-- 19 -->
<g id="node20" class="node">
<title>19</title>
<path fill="none" stroke="#56d8b1" stroke-width="2" d="M593.6964,-1188C593.6964,-1188 480.3036,-1188 480.3036,-1188 474.3036,-1188 468.3036,-1182 468.3036,-1176 468.3036,-1176 468.3036,-1164 468.3036,-1164 468.3036,-1158 474.3036,-1152 480.3036,-1152 480.3036,-1152 593.6964,-1152 593.6964,-1152 599.6964,-1152 605.6964,-1158 605.6964,-1164 605.6964,-1164 605.6964,-1176 605.6964,-1176 605.6964,-1182 599.6964,-1188 593.6964,-1188"/>
<text text-anchor="middle" x="537" y="-1167" font-family="sans" font-size="10.00" fill="#000000">relatedness_exclude_failed</text>
</g>
<!-- 5&#45;&gt;19 -->
<g id="edge35" class="edge">
<title>5&#45;&gt;19</title>
<path fill="none" stroke="#c0c0c0" stroke-width="2" d="M395.2831,-1367.7907C406.9453,-1335.9172 434.4067,-1269.1203 474,-1224 483.2372,-1213.4733 494.5443,-1203.1541 505.017,-1194.4029"/>
<polygon fill="#c0c0c0" stroke="#c0c0c0" stroke-width="2" points="507.2803,-1197.0734 512.8148,-1188.039 502.8544,-1191.6502 507.2803,-1197.0734"/>
</g>
<!-- 6 -->
<g id="node7" class="node">
<title>6</title>
<path fill="none" stroke="#56c9d8" stroke-width="2" d="M594.8419,-1260C594.8419,-1260 495.1581,-1260 495.1581,-1260 489.1581,-1260 483.1581,-1254 483.1581,-1248 483.1581,-1248 483.1581,-1236 483.1581,-1236 483.1581,-1230 489.1581,-1224 495.1581,-1224 495.1581,-1224 594.8419,-1224 594.8419,-1224 600.8419,-1224 606.8419,-1230 606.8419,-1236 606.8419,-1236 606.8419,-1248 606.8419,-1248 606.8419,-1254 600.8419,-1260 594.8419,-1260"/>
<text text-anchor="middle" x="545" y="-1239" font-family="sans" font-size="10.00" fill="#000000">relatedness_sample_fail</text>
</g>
<!-- 6&#45;&gt;2 -->
<g id="edge7" class="edge">
<title>6&#45;&gt;2</title>
<path fill="none" stroke="#c0c0c0" stroke-width="2" d="M575.6908,-1223.7634C589.2266,-1214.4659 604.4263,-1202.1334 615,-1188 640.7099,-1153.6347 650,-1140.9182 650,-1098 650,-1098 650,-1098 650,-306 650,-265.5282 642.532,-219.2037 636.96,-190.2725"/>
<polygon fill="#c0c0c0" stroke="#c0c0c0" stroke-width="2" points="640.3177,-189.2111 634.9368,-180.0844 633.4517,-190.5746 640.3177,-189.2111"/>
</g>
<!-- 6&#45;&gt;19 -->
<g id="edge36" class="edge">
<title>6&#45;&gt;19</title>
<path fill="none" stroke="#c0c0c0" stroke-width="2" d="M542.9813,-1223.8314C542.1257,-1216.131 541.1083,-1206.9743 540.1574,-1198.4166"/>
<polygon fill="#c0c0c0" stroke="#c0c0c0" stroke-width="2" points="543.6289,-1197.9656 539.0459,-1188.4133 536.6717,-1198.7386 543.6289,-1197.9656"/>
</g>
<!-- 7 -->
<g id="node8" class="node">
<title>7</title>
<path fill="none" stroke="#9fd856" stroke-width="2" d="M609.8419,-1044C609.8419,-1044 500.1581,-1044 500.1581,-1044 494.1581,-1044 488.1581,-1038 488.1581,-1032 488.1581,-1032 488.1581,-1020 488.1581,-1020 488.1581,-1014 494.1581,-1008 500.1581,-1008 500.1581,-1008 609.8419,-1008 609.8419,-1008 615.8419,-1008 621.8419,-1014 621.8419,-1020 621.8419,-1020 621.8419,-1032 621.8419,-1032 621.8419,-1038 615.8419,-1044 609.8419,-1044"/>
<text text-anchor="middle" x="555" y="-1023" font-family="sans" font-size="10.00" fill="#000000">heterozigosity_sample_fail</text>
</g>
<!-- 7&#45;&gt;2 -->
<g id="edge8" class="edge">
<title>7&#45;&gt;2</title>
<path fill="none" stroke="#c0c0c0" stroke-width="2" d="M570.746,-1007.6429C578.5252,-997.6881 587.4171,-984.8229 593,-972 609.3195,-934.5169 612,-922.8816 612,-882 612,-882 612,-882 612,-306 612,-265.5282 619.468,-219.2037 625.04,-190.2725"/>
<polygon fill="#c0c0c0" stroke="#c0c0c0" stroke-width="2" points="628.5483,-190.5746 627.0632,-180.0844 621.6823,-189.2111 628.5483,-190.5746"/>
</g>
<!-- 28 -->
<g id="node29" class="node">
<title>28</title>
<path fill="none" stroke="#61d856" stroke-width="2" d="M571.6964,-972C571.6964,-972 448.3036,-972 448.3036,-972 442.3036,-972 436.3036,-966 436.3036,-960 436.3036,-960 436.3036,-948 436.3036,-948 436.3036,-942 442.3036,-936 448.3036,-936 448.3036,-936 571.6964,-936 571.6964,-936 577.6964,-936 583.6964,-942 583.6964,-948 583.6964,-948 583.6964,-960 583.6964,-960 583.6964,-966 577.6964,-972 571.6964,-972"/>
<text text-anchor="middle" x="510" y="-951" font-family="sans" font-size="10.00" fill="#000000">heterozigosity_exclude_failed</text>
</g>
<!-- 7&#45;&gt;28 -->
<g id="edge52" class="edge">
<title>7&#45;&gt;28</title>
<path fill="none" stroke="#c0c0c0" stroke-width="2" d="M543.6446,-1007.8314C538.5674,-999.7079 532.4773,-989.9637 526.8824,-981.0118"/>
<polygon fill="#c0c0c0" stroke="#c0c0c0" stroke-width="2" points="529.7763,-979.0383 521.5083,-972.4133 523.8403,-982.7483 529.7763,-979.0383"/>
</g>
<!-- 8 -->
<g id="node9" class="node">
<title>8</title>
<path fill="none" stroke="#d85656" stroke-width="2" d="M800.0059,-1620C800.0059,-1620 651.9941,-1620 651.9941,-1620 645.9941,-1620 639.9941,-1614 639.9941,-1608 639.9941,-1608 639.9941,-1596 639.9941,-1596 639.9941,-1590 645.9941,-1584 651.9941,-1584 651.9941,-1584 800.0059,-1584 800.0059,-1584 806.0059,-1584 812.0059,-1590 812.0059,-1596 812.0059,-1596 812.0059,-1608 812.0059,-1608 812.0059,-1614 806.0059,-1620 800.0059,-1620"/>
<text text-anchor="middle" x="726" y="-1604" font-family="sans" font-size="10.00" fill="#000000">sex_sample_fail</text>
<text text-anchor="middle" x="726" y="-1594" font-family="sans" font-size="10.00" fill="#000000">sample: 201711_CoreExome&#45;DIAN</text>
</g>
<!-- 8&#45;&gt;2 -->
<g id="edge9" class="edge">
<title>8&#45;&gt;2</title>
<path fill="none" stroke="#c0c0c0" stroke-width="2" d="M726,-1583.8146C726,-1556.4983 726,-1503.25 726,-1458 726,-1458 726,-1458 726,-306 726,-264.6022 725.0523,-250.3856 702,-216 694.2347,-204.417 683.1478,-194.3014 672.0367,-186.054"/>
<polygon fill="#c0c0c0" stroke="#c0c0c0" stroke-width="2" points="673.784,-183.0041 663.5899,-180.118 669.7592,-188.7313 673.784,-183.0041"/>
</g>
<!-- 13 -->
<g id="node14" class="node">
<title>13</title>
<path fill="none" stroke="#70d856" stroke-width="2" d="M509.1208,-1548C509.1208,-1548 426.8792,-1548 426.8792,-1548 420.8792,-1548 414.8792,-1542 414.8792,-1536 414.8792,-1536 414.8792,-1524 414.8792,-1524 414.8792,-1518 420.8792,-1512 426.8792,-1512 426.8792,-1512 509.1208,-1512 509.1208,-1512 515.1208,-1512 521.1208,-1518 521.1208,-1524 521.1208,-1524 521.1208,-1536 521.1208,-1536 521.1208,-1542 515.1208,-1548 509.1208,-1548"/>
<text text-anchor="middle" x="468" y="-1527" font-family="sans" font-size="10.00" fill="#000000">sex__exclude_failed</text>
</g>
<!-- 8&#45;&gt;13 -->
<g id="edge30" class="edge">
<title>8&#45;&gt;13</title>
<path fill="none" stroke="#c0c0c0" stroke-width="2" d="M661.2287,-1583.9243C621.4608,-1572.8263 570.7593,-1558.677 531.2709,-1547.657"/>
<polygon fill="#c0c0c0" stroke="#c0c0c0" stroke-width="2" points="532.0593,-1544.2433 521.4865,-1544.9265 530.1777,-1550.9857 532.0593,-1544.2433"/>
</g>
<!-- 9 -->
<g id="node10" class="node">
<title>9</title>
<path fill="none" stroke="#567bd8" stroke-width="2" d="M500.9258,-1620C500.9258,-1620 435.0742,-1620 435.0742,-1620 429.0742,-1620 423.0742,-1614 423.0742,-1608 423.0742,-1608 423.0742,-1596 423.0742,-1596 423.0742,-1590 429.0742,-1584 435.0742,-1584 435.0742,-1584 500.9258,-1584 500.9258,-1584 506.9258,-1584 512.9258,-1590 512.9258,-1596 512.9258,-1596 512.9258,-1608 512.9258,-1608 512.9258,-1614 506.9258,-1620 500.9258,-1620"/>
<text text-anchor="middle" x="468" y="-1599" font-family="sans" font-size="10.00" fill="#000000">sample_callRate</text>
</g>
<!-- 9&#45;&gt;2 -->
<g id="edge10" class="edge">
<title>9&#45;&gt;2</title>
<path fill="none" stroke="#c0c0c0" stroke-width="2" d="M494.3835,-1583.9947C506.6343,-1574.5019 520.5457,-1561.9399 530,-1548 648.9793,-1372.5717 688,-1309.9697 688,-1098 688,-1098 688,-1098 688,-306 688,-262.7597 665.5055,-217.0187 648.7788,-188.9832"/>
<polygon fill="#c0c0c0" stroke="#c0c0c0" stroke-width="2" points="651.5874,-186.8688 643.3682,-180.1834 645.6244,-190.5353 651.5874,-186.8688"/>
</g>
<!-- 9&#45;&gt;3 -->
<g id="edge13" class="edge">
<title>9&#45;&gt;3</title>
<path fill="none" stroke="#c0c0c0" stroke-width="2" d="M422.7952,-1596.6351C312.3943,-1582.2785 38,-1538.499 38,-1458 38,-1458 38,-1458 38,-234 38,-188.656 67.8384,-143.5999 90.1226,-116.2735"/>
<polygon fill="#c0c0c0" stroke="#c0c0c0" stroke-width="2" points="93.0006,-118.2889 96.7544,-108.3814 87.6415,-113.7856 93.0006,-118.2889"/>
</g>
<!-- 9&#45;&gt;13 -->
<g id="edge29" class="edge">
<title>9&#45;&gt;13</title>
<path fill="none" stroke="#c0c0c0" stroke-width="2" d="M468,-1583.8314C468,-1576.131 468,-1566.9743 468,-1558.4166"/>
<polygon fill="#c0c0c0" stroke="#c0c0c0" stroke-width="2" points="471.5001,-1558.4132 468,-1548.4133 464.5001,-1558.4133 471.5001,-1558.4132"/>
</g>
<!-- 10 -->
<g id="node11" class="node">
<title>10</title>
<path fill="none" stroke="#56d85b" stroke-width="2" d="M514.4453,-324C514.4453,-324 423.5547,-324 423.5547,-324 417.5547,-324 411.5547,-318 411.5547,-312 411.5547,-312 411.5547,-300 411.5547,-300 411.5547,-294 417.5547,-288 423.5547,-288 423.5547,-288 514.4453,-288 514.4453,-288 520.4453,-288 526.4453,-294 526.4453,-300 526.4453,-300 526.4453,-312 526.4453,-312 526.4453,-318 520.4453,-324 514.4453,-324"/>
<text text-anchor="middle" x="469" y="-303" font-family="sans" font-size="10.00" fill="#000000">PcaPopulationOutliers</text>
</g>
<!-- 10&#45;&gt;3 -->
<g id="edge12" class="edge">
<title>10&#45;&gt;3</title>
<path fill="none" stroke="#c0c0c0" stroke-width="2" d="M411.3573,-292.7409C346.9405,-275.5829 242.3426,-240.4731 171,-180 150.8733,-162.9397 135.4777,-136.9456 125.7903,-117.2721"/>
<polygon fill="#c0c0c0" stroke="#c0c0c0" stroke-width="2" points="128.9349,-115.7344 121.4975,-108.1888 122.606,-118.7255 128.9349,-115.7344"/>
</g>
<!-- 10&#45;&gt;4 -->
<g id="edge17" class="edge">
<title>10&#45;&gt;4</title>
<path fill="none" stroke="#c0c0c0" stroke-width="2" d="M475.0562,-287.8314C477.6512,-280.0463 480.7424,-270.7729 483.6218,-262.1347"/>
<polygon fill="#c0c0c0" stroke="#c0c0c0" stroke-width="2" points="487.0203,-263.0069 486.8622,-252.4133 480.3795,-260.7933 487.0203,-263.0069"/>
</g>
<!-- 11 -->
<g id="node12" class="node">
<title>11</title>
<path fill="none" stroke="#c6d856" stroke-width="2" d="M542.0059,-1692C542.0059,-1692 393.9941,-1692 393.9941,-1692 387.9941,-1692 381.9941,-1686 381.9941,-1680 381.9941,-1680 381.9941,-1668 381.9941,-1668 381.9941,-1662 387.9941,-1656 393.9941,-1656 393.9941,-1656 542.0059,-1656 542.0059,-1656 548.0059,-1656 554.0059,-1662 554.0059,-1668 554.0059,-1668 554.0059,-1680 554.0059,-1680 554.0059,-1686 548.0059,-1692 542.0059,-1692"/>
<text text-anchor="middle" x="468" y="-1676" font-family="sans" font-size="10.00" fill="#000000">snp_qc</text>
<text text-anchor="middle" x="468" y="-1666" font-family="sans" font-size="10.00" fill="#000000">sample: 201711_CoreExome&#45;DIAN</text>
</g>
<!-- 11&#45;&gt;3 -->
<g id="edge14" class="edge">
<title>11&#45;&gt;3</title>
<path fill="none" stroke="#c0c0c0" stroke-width="2" d="M381.889,-1665.2889C246.722,-1649.1977 0,-1609.0054 0,-1530 0,-1530 0,-1530 0,-234 0,-183.147 44.2447,-139.7674 77.6064,-114.2861"/>
<polygon fill="#c0c0c0" stroke="#c0c0c0" stroke-width="2" points="79.8693,-116.9655 85.8202,-108.1998 75.7018,-111.3413 79.8693,-116.9655"/>
</g>
<!-- 11&#45;&gt;6 -->
<g id="edge22" class="edge">
<title>11&#45;&gt;6</title>
<path fill="none" stroke="#c0c0c0" stroke-width="2" d="M506.9685,-1655.9107C549.6147,-1633.1096 612,-1589.5737 612,-1530 612,-1530 612,-1530 612,-1386 612,-1341.7121 585.6258,-1296.3128 565.9724,-1268.6304"/>
<polygon fill="#c0c0c0" stroke="#c0c0c0" stroke-width="2" points="568.599,-1266.293 559.8695,-1260.2891 562.9496,-1270.4263 568.599,-1266.293"/>
</g>
<!-- 11&#45;&gt;9 -->
<g id="edge25" class="edge">
<title>11&#45;&gt;9</title>
<path fill="none" stroke="#c0c0c0" stroke-width="2" d="M468,-1655.8314C468,-1648.131 468,-1638.9743 468,-1630.4166"/>
<polygon fill="#c0c0c0" stroke="#c0c0c0" stroke-width="2" points="471.5001,-1630.4132 468,-1620.4133 464.5001,-1630.4133 471.5001,-1630.4132"/>
</g>
<!-- 12&#45;&gt;3 -->
<g id="edge15" class="edge">
<title>12&#45;&gt;3</title>
<path fill="none" stroke="#c0c0c0" stroke-width="2" d="M474.6777,-1295.7801C462.3646,-1255.1648 429.4535,-1154.8875 384,-1080 288.6988,-922.9854 152,-921.6734 152,-738 152,-738 152,-738 152,-450 152,-325.7927 129.3522,-178.8051 119.0251,-118.2372"/>
<polygon fill="#c0c0c0" stroke="#c0c0c0" stroke-width="2" points="122.4573,-117.5438 117.3058,-108.2857 115.5595,-118.7356 122.4573,-117.5438"/>
</g>
<!-- 12&#45;&gt;6 -->
<g id="edge21" class="edge">
<title>12&#45;&gt;6</title>
<path fill="none" stroke="#c0c0c0" stroke-width="2" d="M496.4022,-1295.8314C504.0415,-1287.3694 513.2683,-1277.1489 521.6207,-1267.8971"/>
<polygon fill="#c0c0c0" stroke="#c0c0c0" stroke-width="2" points="524.2738,-1270.1813 528.3769,-1260.4133 519.0779,-1265.4906 524.2738,-1270.1813"/>
</g>
<!-- 13&#45;&gt;5 -->
<g id="edge19" class="edge">
<title>13&#45;&gt;5</title>
<path fill="none" stroke="#c0c0c0" stroke-width="2" d="M467.4471,-1511.9251C466.1496,-1492.8712 462.002,-1462.5503 449,-1440 442.6562,-1428.9975 433.2847,-1419.0176 423.8242,-1410.7152"/>
<polygon fill="#c0c0c0" stroke="#c0c0c0" stroke-width="2" points="425.8496,-1407.8476 415.9209,-1404.15 421.3767,-1413.2322 425.8496,-1407.8476"/>
</g>
<!-- 14 -->
<g id="node15" class="node">
<title>14</title>
<path fill="none" stroke="#56d8c1" stroke-width="2" d="M427.6062,-1476C427.6062,-1476 350.3938,-1476 350.3938,-1476 344.3938,-1476 338.3938,-1470 338.3938,-1464 338.3938,-1464 338.3938,-1452 338.3938,-1452 338.3938,-1446 344.3938,-1440 350.3938,-1440 350.3938,-1440 427.6062,-1440 427.6062,-1440 433.6062,-1440 439.6062,-1446 439.6062,-1452 439.6062,-1452 439.6062,-1464 439.6062,-1464 439.6062,-1470 433.6062,-1476 427.6062,-1476"/>
<text text-anchor="middle" x="389" y="-1455" font-family="sans" font-size="10.00" fill="#000000">PruneDupvar_snps</text>
</g>
<!-- 13&#45;&gt;14 -->
<g id="edge31" class="edge">
<title>13&#45;&gt;14</title>
<path fill="none" stroke="#c0c0c0" stroke-width="2" d="M448.065,-1511.8314C438.5217,-1503.1337 426.9401,-1492.5783 416.5694,-1483.1265"/>
<polygon fill="#c0c0c0" stroke="#c0c0c0" stroke-width="2" points="418.6772,-1480.3121 408.9287,-1476.1628 413.962,-1485.4857 418.6772,-1480.3121"/>
</g>
<!-- 14&#45;&gt;5 -->
<g id="edge20" class="edge">
<title>14&#45;&gt;5</title>
<path fill="none" stroke="#c0c0c0" stroke-width="2" d="M389,-1439.8314C389,-1432.131 389,-1422.9743 389,-1414.4166"/>
<polygon fill="#c0c0c0" stroke="#c0c0c0" stroke-width="2" points="392.5001,-1414.4132 389,-1404.4133 385.5001,-1414.4133 392.5001,-1414.4132"/>
</g>
<!-- 15 -->
<g id="node16" class="node">
<title>15</title>
<path fill="none" stroke="#d88556" stroke-width="2" d="M583.2611,-1116C583.2611,-1116 508.7389,-1116 508.7389,-1116 502.7389,-1116 496.7389,-1110 496.7389,-1104 496.7389,-1104 496.7389,-1092 496.7389,-1092 496.7389,-1086 502.7389,-1080 508.7389,-1080 508.7389,-1080 583.2611,-1080 583.2611,-1080 589.2611,-1080 595.2611,-1086 595.2611,-1092 595.2611,-1092 595.2611,-1104 595.2611,-1104 595.2611,-1110 589.2611,-1116 583.2611,-1116"/>
<text text-anchor="middle" x="546" y="-1095" font-family="sans" font-size="10.00" fill="#000000">heterozigosity_QC</text>
</g>
<!-- 15&#45;&gt;7 -->
<g id="edge23" class="edge">
<title>15&#45;&gt;7</title>
<path fill="none" stroke="#c0c0c0" stroke-width="2" d="M548.2711,-1079.8314C549.2336,-1072.131 550.3782,-1062.9743 551.4479,-1054.4166"/>
<polygon fill="#c0c0c0" stroke="#c0c0c0" stroke-width="2" points="554.9309,-1054.7702 552.6983,-1044.4133 547.9849,-1053.9019 554.9309,-1054.7702"/>
</g>
<!-- 16 -->
<g id="node17" class="node">
<title>16</title>
<path fill="none" stroke="#56d8d0" stroke-width="2" d="M809.4072,-1692C809.4072,-1692 642.5928,-1692 642.5928,-1692 636.5928,-1692 630.5928,-1686 630.5928,-1680 630.5928,-1680 630.5928,-1668 630.5928,-1668 630.5928,-1662 636.5928,-1656 642.5928,-1656 642.5928,-1656 809.4072,-1656 809.4072,-1656 815.4072,-1656 821.4072,-1662 821.4072,-1668 821.4072,-1668 821.4072,-1680 821.4072,-1680 821.4072,-1686 815.4072,-1692 809.4072,-1692"/>
<text text-anchor="middle" x="726" y="-1676" font-family="sans" font-size="10.00" fill="#000000">sexcheck_QC</text>
<text text-anchor="middle" x="726" y="-1666" font-family="sans" font-size="10.00" fill="#000000">SampleSex: 201711_CoreExome&#45;DIAN</text>
</g>
<!-- 16&#45;&gt;8 -->
<g id="edge24" class="edge">
<title>16&#45;&gt;8</title>
<path fill="none" stroke="#c0c0c0" stroke-width="2" d="M726,-1655.8314C726,-1648.131 726,-1638.9743 726,-1630.4166"/>
<polygon fill="#c0c0c0" stroke="#c0c0c0" stroke-width="2" points="729.5001,-1630.4132 726,-1620.4133 722.5001,-1630.4133 729.5001,-1630.4132"/>
</g>
<!-- 17 -->
<g id="node18" class="node">
<title>17</title>
<path fill="none" stroke="#d6d856" stroke-width="2" d="M489.3893,-468C489.3893,-468 398.6107,-468 398.6107,-468 392.6107,-468 386.6107,-462 386.6107,-456 386.6107,-456 386.6107,-444 386.6107,-444 386.6107,-438 392.6107,-432 398.6107,-432 398.6107,-432 489.3893,-432 489.3893,-432 495.3893,-432 501.3893,-438 501.3893,-444 501.3893,-444 501.3893,-456 501.3893,-456 501.3893,-462 495.3893,-468 489.3893,-468"/>
<text text-anchor="middle" x="444" y="-447" font-family="sans" font-size="10.00" fill="#000000">Plink_RefenceSample</text>
</g>
<!-- 17&#45;&gt;10 -->
<g id="edge26" class="edge">
<title>17&#45;&gt;10</title>
<path fill="none" stroke="#c0c0c0" stroke-width="2" d="M453.914,-431.5864C458.8564,-421.4069 464.3359,-408.3515 467,-396 471.3868,-375.6618 471.752,-352.1383 471.0919,-334.2422"/>
<polygon fill="#c0c0c0" stroke="#c0c0c0" stroke-width="2" points="474.5832,-333.9783 470.5915,-324.1642 467.5918,-334.3256 474.5832,-333.9783"/>
</g>
<!-- 18 -->
<g id="node19" class="node">
<title>18</title>
<path fill="none" stroke="#d89c56" stroke-width="2" d="M446,-396C446,-396 416,-396 416,-396 410,-396 404,-390 404,-384 404,-384 404,-372 404,-372 404,-366 410,-360 416,-360 416,-360 446,-360 446,-360 452,-360 458,-366 458,-372 458,-372 458,-384 458,-384 458,-390 452,-396 446,-396"/>
<text text-anchor="middle" x="431" y="-375" font-family="sans" font-size="10.00" fill="#000000">fix_fam</text>
</g>
<!-- 17&#45;&gt;18 -->
<g id="edge34" class="edge">
<title>17&#45;&gt;18</title>
<path fill="none" stroke="#c0c0c0" stroke-width="2" d="M440.7196,-431.8314C439.3292,-424.131 437.6759,-414.9743 436.1308,-406.4166"/>
<polygon fill="#c0c0c0" stroke="#c0c0c0" stroke-width="2" points="439.5458,-405.6322 434.3246,-396.4133 432.6572,-406.8761 439.5458,-405.6322"/>
</g>
<!-- 18&#45;&gt;10 -->
<g id="edge27" class="edge">
<title>18&#45;&gt;10</title>
<path fill="none" stroke="#c0c0c0" stroke-width="2" d="M440.589,-359.8314C444.8317,-351.7925 449.9121,-342.1666 454.596,-333.2918"/>
<polygon fill="#c0c0c0" stroke="#c0c0c0" stroke-width="2" points="457.7096,-334.8908 459.2819,-324.4133 451.5189,-331.6235 457.7096,-334.8908"/>
</g>
<!-- 19&#45;&gt;15 -->
<g id="edge32" class="edge">
<title>19&#45;&gt;15</title>
<path fill="none" stroke="#c0c0c0" stroke-width="2" d="M539.2711,-1151.8314C540.2336,-1144.131 541.3782,-1134.9743 542.4479,-1126.4166"/>
<polygon fill="#c0c0c0" stroke="#c0c0c0" stroke-width="2" points="545.9309,-1126.7702 543.6983,-1116.4133 538.9849,-1125.9019 545.9309,-1126.7702"/>
</g>
<!-- 19&#45;&gt;28 -->
<g id="edge51" class="edge">
<title>19&#45;&gt;28</title>
<path fill="none" stroke="#c0c0c0" stroke-width="2" d="M515.3232,-1151.9186C505.3186,-1142.3201 494.2885,-1129.6893 488,-1116 467.8935,-1072.2309 466.5909,-1054.5405 479,-1008 481.4952,-998.6419 486.0408,-989.2199 490.8961,-980.925"/>
<polygon fill="#c0c0c0" stroke="#c0c0c0" stroke-width="2" points="493.8771,-982.759 496.2037,-972.4228 487.9392,-979.0521 493.8771,-982.759"/>
</g>
<!-- 20 -->
<g id="node21" class="node">
<title>20</title>
<path fill="none" stroke="#569ad8" stroke-width="2" d="M492.5586,-540C492.5586,-540 395.4414,-540 395.4414,-540 389.4414,-540 383.4414,-534 383.4414,-528 383.4414,-528 383.4414,-516 383.4414,-516 383.4414,-510 389.4414,-504 395.4414,-504 395.4414,-504 492.5586,-504 492.5586,-504 498.5586,-504 504.5586,-510 504.5586,-516 504.5586,-516 504.5586,-528 504.5586,-528 504.5586,-534 498.5586,-540 492.5586,-540"/>
<text text-anchor="middle" x="444" y="-519" font-family="sans" font-size="10.00" fill="#000000">Merge_RefenceSample</text>
</g>
<!-- 20&#45;&gt;17 -->
<g id="edge33" class="edge">
<title>20&#45;&gt;17</title>
<path fill="none" stroke="#c0c0c0" stroke-width="2" d="M444,-503.8314C444,-496.131 444,-486.9743 444,-478.4166"/>
<polygon fill="#c0c0c0" stroke="#c0c0c0" stroke-width="2" points="447.5001,-478.4132 444,-468.4133 440.5001,-478.4133 447.5001,-478.4132"/>
</g>
<!-- 21 -->
<g id="node22" class="node">
<title>21</title>
<path fill="none" stroke="#80d856" stroke-width="2" d="M346.1111,-612C346.1111,-612 263.8889,-612 263.8889,-612 257.8889,-612 251.8889,-606 251.8889,-600 251.8889,-600 251.8889,-588 251.8889,-588 251.8889,-582 257.8889,-576 263.8889,-576 263.8889,-576 346.1111,-576 346.1111,-576 352.1111,-576 358.1111,-582 358.1111,-588 358.1111,-588 358.1111,-600 358.1111,-600 358.1111,-606 352.1111,-612 346.1111,-612"/>
<text text-anchor="middle" x="305" y="-591" font-family="sans" font-size="10.00" fill="#000000">Reference_IndexBcf</text>
</g>
<!-- 21&#45;&gt;20 -->
<g id="edge37" class="edge">
<title>21&#45;&gt;20</title>
<path fill="none" stroke="#c0c0c0" stroke-width="2" d="M340.0756,-575.8314C358.2661,-566.4089 380.6658,-554.8062 400.006,-544.7883"/>
<polygon fill="#c0c0c0" stroke="#c0c0c0" stroke-width="2" points="401.666,-547.8701 408.9357,-540.1628 398.4463,-541.6545 401.666,-547.8701"/>
</g>
<!-- 22 -->
<g id="node23" class="node">
<title>22</title>
<path fill="none" stroke="#d87556" stroke-width="2" d="M516.6525,-756C516.6525,-756 443.3475,-756 443.3475,-756 437.3475,-756 431.3475,-750 431.3475,-744 431.3475,-744 431.3475,-732 431.3475,-732 431.3475,-726 437.3475,-720 443.3475,-720 443.3475,-720 516.6525,-720 516.6525,-720 522.6525,-720 528.6525,-726 528.6525,-732 528.6525,-732 528.6525,-744 528.6525,-744 528.6525,-750 522.6525,-756 516.6525,-756"/>
<text text-anchor="middle" x="480" y="-735" font-family="sans" font-size="10.00" fill="#000000">Sample_Plink2Bcf</text>
</g>
<!-- 22&#45;&gt;20 -->
<g id="edge38" class="edge">
<title>22&#45;&gt;20</title>
<path fill="none" stroke="#c0c0c0" stroke-width="2" d="M491.76,-719.7854C510.183,-688.7524 541.3505,-624.3015 517,-576 510.8926,-563.8853 500.6412,-553.8131 489.7224,-545.7793"/>
<polygon fill="#c0c0c0" stroke="#c0c0c0" stroke-width="2" points="491.5334,-542.7779 481.3002,-540.0331 487.5882,-548.5603 491.5334,-542.7779"/>
</g>
<!-- 23 -->
<g id="node24" class="node">
<title>23</title>
<path fill="none" stroke="#56b9d8" stroke-width="2" d="M496.3797,-612C496.3797,-612 425.6203,-612 425.6203,-612 419.6203,-612 413.6203,-606 413.6203,-600 413.6203,-600 413.6203,-588 413.6203,-588 413.6203,-582 419.6203,-576 425.6203,-576 425.6203,-576 496.3797,-576 496.3797,-576 502.3797,-576 508.3797,-582 508.3797,-588 508.3797,-588 508.3797,-600 508.3797,-600 508.3797,-606 502.3797,-612 496.3797,-612"/>
<text text-anchor="middle" x="461" y="-591" font-family="sans" font-size="10.00" fill="#000000">Sample_IndexBcf</text>
</g>
<!-- 22&#45;&gt;23 -->
<g id="edge44" class="edge">
<title>22&#45;&gt;23</title>
<path fill="none" stroke="#c0c0c0" stroke-width="2" d="M477.5936,-719.7623C474.3529,-695.201 468.5535,-651.2474 464.7412,-622.3541"/>
<polygon fill="#c0c0c0" stroke="#c0c0c0" stroke-width="2" points="468.1649,-621.5458 463.3868,-612.0896 461.2251,-622.4616 468.1649,-621.5458"/>
</g>
<!-- 23&#45;&gt;20 -->
<g id="edge39" class="edge">
<title>23&#45;&gt;20</title>
<path fill="none" stroke="#c0c0c0" stroke-width="2" d="M456.7102,-575.8314C454.892,-568.131 452.7301,-558.9743 450.7095,-550.4166"/>
<polygon fill="#c0c0c0" stroke="#c0c0c0" stroke-width="2" points="454.0519,-549.3414 448.3476,-540.4133 447.2392,-550.95 454.0519,-549.3414"/>
</g>
<!-- 24 -->
<g id="node25" class="node">
<title>24</title>
<path fill="none" stroke="#56d892" stroke-width="2" d="M392.8845,-684C392.8845,-684 307.1155,-684 307.1155,-684 301.1155,-684 295.1155,-678 295.1155,-672 295.1155,-672 295.1155,-660 295.1155,-660 295.1155,-654 301.1155,-648 307.1155,-648 307.1155,-648 392.8845,-648 392.8845,-648 398.8845,-648 404.8845,-654 404.8845,-660 404.8845,-660 404.8845,-672 404.8845,-672 404.8845,-678 398.8845,-684 392.8845,-684"/>
<text text-anchor="middle" x="350" y="-663" font-family="sans" font-size="10.00" fill="#000000">Reference_Plink2Bcf</text>
</g>
<!-- 24&#45;&gt;20 -->
<g id="edge40" class="edge">
<title>24&#45;&gt;20</title>
<path fill="none" stroke="#c0c0c0" stroke-width="2" d="M360.5562,-647.8146C371.3447,-629.4517 388.7721,-600.3939 405,-576 411.053,-566.9011 417.9515,-557.1615 424.2465,-548.494"/>
<polygon fill="#c0c0c0" stroke="#c0c0c0" stroke-width="2" points="427.2013,-550.383 430.2866,-540.2473 421.554,-546.2467 427.2013,-550.383"/>
</g>
<!-- 24&#45;&gt;21 -->
<g id="edge41" class="edge">
<title>24&#45;&gt;21</title>
<path fill="none" stroke="#c0c0c0" stroke-width="2" d="M338.6446,-647.8314C333.5674,-639.7079 327.4773,-629.9637 321.8824,-621.0118"/>
<polygon fill="#c0c0c0" stroke="#c0c0c0" stroke-width="2" points="324.7763,-619.0383 316.5083,-612.4133 318.8403,-622.7483 324.7763,-619.0383"/>
</g>
<!-- 25 -->
<g id="node26" class="node">
<title>25</title>
<path fill="none" stroke="#d8ac56" stroke-width="2" d="M533.5823,-900C533.5823,-900 486.4177,-900 486.4177,-900 480.4177,-900 474.4177,-894 474.4177,-888 474.4177,-888 474.4177,-876 474.4177,-876 474.4177,-870 480.4177,-864 486.4177,-864 486.4177,-864 533.5823,-864 533.5823,-864 539.5823,-864 545.5823,-870 545.5823,-876 545.5823,-876 545.5823,-888 545.5823,-888 545.5823,-894 539.5823,-900 533.5823,-900"/>
<text text-anchor="middle" x="510" y="-879" font-family="sans" font-size="10.00" fill="#000000">Sample_Flip</text>
</g>
<!-- 25&#45;&gt;22 -->
<g id="edge42" class="edge">
<title>25&#45;&gt;22</title>
<path fill="none" stroke="#c0c0c0" stroke-width="2" d="M515.2606,-863.9743C519.7719,-845.4857 524.4652,-816.1026 517,-792 513.9555,-782.1704 508.4359,-772.5387 502.5729,-764.1946"/>
<polygon fill="#c0c0c0" stroke="#c0c0c0" stroke-width="2" points="505.2314,-761.9061 496.4281,-756.011 499.6337,-766.1092 505.2314,-761.9061"/>
</g>
<!-- 26 -->
<g id="node27" class="node">
<title>26</title>
<path fill="none" stroke="#d8cb56" stroke-width="2" d="M495.9356,-828C495.9356,-828 390.0644,-828 390.0644,-828 384.0644,-828 378.0644,-822 378.0644,-816 378.0644,-816 378.0644,-804 378.0644,-804 378.0644,-798 384.0644,-792 390.0644,-792 390.0644,-792 495.9356,-792 495.9356,-792 501.9356,-792 507.9356,-798 507.9356,-804 507.9356,-804 507.9356,-816 507.9356,-816 507.9356,-822 501.9356,-828 495.9356,-828"/>
<text text-anchor="middle" x="443" y="-807" font-family="sans" font-size="10.00" fill="#000000">Sample_ChromPosRefAlt</text>
</g>
<!-- 25&#45;&gt;26 -->
<g id="edge47" class="edge">
<title>25&#45;&gt;26</title>
<path fill="none" stroke="#c0c0c0" stroke-width="2" d="M493.0931,-863.8314C485.2187,-855.3694 475.708,-845.1489 467.0987,-835.8971"/>
<polygon fill="#c0c0c0" stroke="#c0c0c0" stroke-width="2" points="469.5092,-833.3497 460.1346,-828.4133 464.3847,-838.1183 469.5092,-833.3497"/>
</g>
<!-- 26&#45;&gt;22 -->
<g id="edge43" class="edge">
<title>26&#45;&gt;22</title>
<path fill="none" stroke="#c0c0c0" stroke-width="2" d="M452.3367,-791.8314C456.4243,-783.8771 461.3104,-774.369 465.8309,-765.5723"/>
<polygon fill="#c0c0c0" stroke="#c0c0c0" stroke-width="2" points="469.0799,-766.9074 470.5376,-756.4133 462.8539,-763.7078 469.0799,-766.9074"/>
</g>
<!-- 27 -->
<g id="node28" class="node">
<title>27</title>
<path fill="none" stroke="#afd856" stroke-width="2" d="M384.7758,-756C384.7758,-756 315.2242,-756 315.2242,-756 309.2242,-756 303.2242,-750 303.2242,-744 303.2242,-744 303.2242,-732 303.2242,-732 303.2242,-726 309.2242,-720 315.2242,-720 315.2242,-720 384.7758,-720 384.7758,-720 390.7758,-720 396.7758,-726 396.7758,-732 396.7758,-732 396.7758,-744 396.7758,-744 396.7758,-750 390.7758,-756 384.7758,-756"/>
<text text-anchor="middle" x="350" y="-735" font-family="sans" font-size="10.00" fill="#000000">Reference_prune</text>
</g>
<!-- 26&#45;&gt;27 -->
<g id="edge50" class="edge">
<title>26&#45;&gt;27</title>
<path fill="none" stroke="#c0c0c0" stroke-width="2" d="M419.5322,-791.8314C407.9673,-782.8779 393.8596,-771.9558 381.3817,-762.2955"/>
<polygon fill="#c0c0c0" stroke="#c0c0c0" stroke-width="2" points="383.5102,-759.5171 373.4603,-756.1628 379.225,-765.0521 383.5102,-759.5171"/>
</g>
<!-- 27&#45;&gt;24 -->
<g id="edge45" class="edge">
<title>27&#45;&gt;24</title>
<path fill="none" stroke="#c0c0c0" stroke-width="2" d="M350,-719.8314C350,-712.131 350,-702.9743 350,-694.4166"/>
<polygon fill="#c0c0c0" stroke="#c0c0c0" stroke-width="2" points="353.5001,-694.4132 350,-684.4133 346.5001,-694.4133 353.5001,-694.4132"/>
</g>
<!-- 28&#45;&gt;25 -->
<g id="edge46" class="edge">
<title>28&#45;&gt;25</title>
<path fill="none" stroke="#c0c0c0" stroke-width="2" d="M510,-935.8314C510,-928.131 510,-918.9743 510,-910.4166"/>
<polygon fill="#c0c0c0" stroke="#c0c0c0" stroke-width="2" points="513.5001,-910.4132 510,-900.4133 506.5001,-910.4133 513.5001,-910.4132"/>
</g>
<!-- 29 -->
<g id="node30" class="node">
<title>29</title>
<path fill="none" stroke="#56d8a2" stroke-width="2" d="M346.4839,-900C346.4839,-900 289.5161,-900 289.5161,-900 283.5161,-900 277.5161,-894 277.5161,-888 277.5161,-888 277.5161,-876 277.5161,-876 277.5161,-870 283.5161,-864 289.5161,-864 289.5161,-864 346.4839,-864 346.4839,-864 352.4839,-864 358.4839,-870 358.4839,-876 358.4839,-876 358.4839,-888 358.4839,-888 358.4839,-894 352.4839,-900 346.4839,-900"/>
<text text-anchor="middle" x="318" y="-879" font-family="sans" font-size="10.00" fill="#000000">Reference_flip</text>
</g>
<!-- 29&#45;&gt;27 -->
<g id="edge48" class="edge">
<title>29&#45;&gt;27</title>
<path fill="none" stroke="#c0c0c0" stroke-width="2" d="M322.5814,-863.5357C325.132,-853.118 328.323,-839.8514 331,-828 335.6329,-807.4895 340.5264,-784.2685 344.1868,-766.5512"/>
<polygon fill="#c0c0c0" stroke="#c0c0c0" stroke-width="2" points="347.7079,-766.8044 346.2933,-756.3044 340.8513,-765.3948 347.7079,-766.8044"/>
</g>
<!-- 30 -->
<g id="node31" class="node">
<title>30</title>
<path fill="none" stroke="#568ad8" stroke-width="2" d="M310.1671,-828C310.1671,-828 191.8329,-828 191.8329,-828 185.8329,-828 179.8329,-822 179.8329,-816 179.8329,-816 179.8329,-804 179.8329,-804 179.8329,-798 185.8329,-792 191.8329,-792 191.8329,-792 310.1671,-792 310.1671,-792 316.1671,-792 322.1671,-798 322.1671,-804 322.1671,-804 322.1671,-816 322.1671,-816 322.1671,-822 316.1671,-828 310.1671,-828"/>
<text text-anchor="middle" x="251" y="-807" font-family="sans" font-size="10.00" fill="#000000">Reference_ChromPosRefAlt</text>
</g>
<!-- 29&#45;&gt;30 -->
<g id="edge53" class="edge">
<title>29&#45;&gt;30</title>
<path fill="none" stroke="#c0c0c0" stroke-width="2" d="M301.0931,-863.8314C293.2187,-855.3694 283.708,-845.1489 275.0987,-835.8971"/>
<polygon fill="#c0c0c0" stroke="#c0c0c0" stroke-width="2" points="277.5092,-833.3497 268.1346,-828.4133 272.3847,-838.1183 277.5092,-833.3497"/>
</g>
<!-- 30&#45;&gt;27 -->
<g id="edge49" class="edge">
<title>30&#45;&gt;27</title>
<path fill="none" stroke="#c0c0c0" stroke-width="2" d="M275.9819,-791.8314C288.2928,-782.8779 303.3107,-771.9558 316.5937,-762.2955"/>
<polygon fill="#c0c0c0" stroke="#c0c0c0" stroke-width="2" points="318.9973,-764.8752 325.0261,-756.1628 314.8801,-759.214 318.9973,-764.8752"/>
</g>
</g>
</svg>
