<?xml version="1.0" encoding="UTF-8" standalone="no"?>
<!DOCTYPE svg PUBLIC "-//W3C//DTD SVG 1.1//EN"
 "http://www.w3.org/Graphics/SVG/1.1/DTD/svg11.dtd">
<!-- Generated by graphviz version 2.40.1 (20161225.0304)
 -->
<!-- Title: snakemake_dag Pages: 1 -->
<svg width="835pt" height="1700pt"
 viewBox="0.00 0.00 835.27 1700.00" xmlns="http://www.w3.org/2000/svg" xmlns:xlink="http://www.w3.org/1999/xlink">
<g id="graph0" class="graph" transform="scale(1 1) rotate(0) translate(4 1696)">
<title>snakemake_dag</title>
<polygon fill="#ffffff" stroke="transparent" points="-4,4 -4,-1696 831.2687,-1696 831.2687,4 -4,4"/>
<!-- 0 -->
<g id="node1" class="node">
<title>0</title>
<path fill="none" stroke="#80d856" stroke-width="2" stroke-dasharray="5,2" d="M191.0031,-36C191.0031,-36 161.0031,-36 161.0031,-36 155.0031,-36 149.0031,-30 149.0031,-24 149.0031,-24 149.0031,-12 149.0031,-12 149.0031,-6 155.0031,0 161.0031,0 161.0031,0 191.0031,0 191.0031,0 197.0031,0 203.0031,-6 203.0031,-12 203.0031,-12 203.0031,-24 203.0031,-24 203.0031,-30 197.0031,-36 191.0031,-36"/>
<text text-anchor="middle" x="176.0031" y="-15" font-family="sans" font-size="10.00" fill="#000000">all</text>
</g>
<!-- 1 -->
<g id="node2" class="node">
<title>1</title>
<path fill="none" stroke="#56d873" stroke-width="2" stroke-dasharray="5,2" d="M691.2076,-180C691.2076,-180 622.7985,-180 622.7985,-180 616.7985,-180 610.7985,-174 610.7985,-168 610.7985,-168 610.7985,-156 610.7985,-156 610.7985,-150 616.7985,-144 622.7985,-144 622.7985,-144 691.2076,-144 691.2076,-144 697.2076,-144 703.2076,-150 703.2076,-156 703.2076,-156 703.2076,-168 703.2076,-168 703.2076,-174 697.2076,-180 691.2076,-180"/>
<text text-anchor="middle" x="657.0031" y="-159" font-family="sans" font-size="10.00" fill="#000000">SampleExclusion</text>
</g>
<!-- 1&#45;&gt;0 -->
<g id="edge1" class="edge">
<title>1&#45;&gt;0</title>
<path fill="none" stroke="#c0c0c0" stroke-width="2" d="M610.4457,-148.0618C515.0816,-119.5121 299.2524,-54.8979 212.8134,-29.0202"/>
<polygon fill="#c0c0c0" stroke="#c0c0c0" stroke-width="2" points="213.7538,-25.6483 203.1701,-26.1332 211.7462,-32.3542 213.7538,-25.6483"/>
</g>
<!-- 2 -->
<g id="node3" class="node">
<title>2</title>
<path fill="none" stroke="#56d8d0" stroke-width="2" stroke-dasharray="5,2" d="M215.3317,-108C215.3317,-108 136.6744,-108 136.6744,-108 130.6744,-108 124.6744,-102 124.6744,-96 124.6744,-96 124.6744,-84 124.6744,-84 124.6744,-78 130.6744,-72 136.6744,-72 136.6744,-72 215.3317,-72 215.3317,-72 221.3317,-72 227.3317,-78 227.3317,-84 227.3317,-84 227.3317,-96 227.3317,-96 227.3317,-102 221.3317,-108 215.3317,-108"/>
<text text-anchor="middle" x="176.0031" y="-87" font-family="sans" font-size="10.00" fill="#000000">GWAS_QC_Report</text>
</g>
<!-- 2&#45;&gt;0 -->
<g id="edge2" class="edge">
<title>2&#45;&gt;0</title>
<path fill="none" stroke="#c0c0c0" stroke-width="2" d="M176.0031,-71.8314C176.0031,-64.131 176.0031,-54.9743 176.0031,-46.4166"/>
<polygon fill="#c0c0c0" stroke="#c0c0c0" stroke-width="2" points="179.5032,-46.4132 176.0031,-36.4133 172.5032,-46.4133 179.5032,-46.4132"/>
</g>
<!-- 3 -->
<g id="node4" class="node">
<title>3</title>
<path fill="none" stroke="#d86656" stroke-width="2" stroke-dasharray="5,2" d="M136.2886,-180C136.2886,-180 41.7176,-180 41.7176,-180 35.7176,-180 29.7176,-174 29.7176,-168 29.7176,-168 29.7176,-156 29.7176,-156 29.7176,-150 35.7176,-144 41.7176,-144 41.7176,-144 136.2886,-144 136.2886,-144 142.2886,-144 148.2886,-150 148.2886,-156 148.2886,-156 148.2886,-168 148.2886,-168 148.2886,-174 142.2886,-180 136.2886,-180"/>
<text text-anchor="middle" x="89.0031" y="-159" font-family="sans" font-size="10.00" fill="#000000">PopulationStratification</text>
</g>
<!-- 3&#45;&gt;0 -->
<g id="edge3" class="edge">
<title>3&#45;&gt;0</title>
<path fill="none" stroke="#c0c0c0" stroke-width="2" d="M91.4698,-143.8901C94.7176,-124.8068 101.7726,-94.4617 116.0031,-72 122.8586,-61.179 132.4679,-51.201 141.9904,-42.8436"/>
<polygon fill="#c0c0c0" stroke="#c0c0c0" stroke-width="2" points="144.482,-45.3225 149.9065,-36.2216 139.9906,-39.9533 144.482,-45.3225"/>
</g>
<!-- 3&#45;&gt;2 -->
<g id="edge13" class="edge">
<title>3&#45;&gt;2</title>
<path fill="none" stroke="#c0c0c0" stroke-width="2" d="M110.9568,-143.8314C121.6725,-134.9632 134.7219,-124.1637 146.3121,-114.5718"/>
<polygon fill="#c0c0c0" stroke="#c0c0c0" stroke-width="2" points="148.5838,-117.2349 154.0563,-108.1628 144.1208,-111.8422 148.5838,-117.2349"/>
</g>
<!-- 4 -->
<g id="node5" class="node">
<title>4</title>
<path fill="none" stroke="#56d85b" stroke-width="2" stroke-dasharray="5,2" d="M626.845,-1260C626.845,-1260 527.1612,-1260 527.1612,-1260 521.1612,-1260 515.1612,-1254 515.1612,-1248 515.1612,-1248 515.1612,-1236 515.1612,-1236 515.1612,-1230 521.1612,-1224 527.1612,-1224 527.1612,-1224 626.845,-1224 626.845,-1224 632.845,-1224 638.845,-1230 638.845,-1236 638.845,-1236 638.845,-1248 638.845,-1248 638.845,-1254 632.845,-1260 626.845,-1260"/>
<text text-anchor="middle" x="577.0031" y="-1239" font-family="sans" font-size="10.00" fill="#000000">relatedness_sample_fail</text>
</g>
<!-- 4&#45;&gt;1 -->
<g id="edge4" class="edge">
<title>4&#45;&gt;1</title>
<path fill="none" stroke="#c0c0c0" stroke-width="2" d="M600.4647,-1223.8196C629.7403,-1198.8885 676.0031,-1151.092 676.0031,-1098 676.0031,-1098 676.0031,-1098 676.0031,-306 676.0031,-265.5282 668.5351,-219.2037 662.9631,-190.2725"/>
<polygon fill="#c0c0c0" stroke="#c0c0c0" stroke-width="2" points="666.3207,-189.2111 660.9399,-180.0844 659.4548,-190.5746 666.3207,-189.2111"/>
</g>
<!-- 19 -->
<g id="node20" class="node">
<title>19</title>
<path fill="none" stroke="#567bd8" stroke-width="2" stroke-dasharray="5,2" d="M589.6995,-1188C589.6995,-1188 476.3066,-1188 476.3066,-1188 470.3066,-1188 464.3066,-1182 464.3066,-1176 464.3066,-1176 464.3066,-1164 464.3066,-1164 464.3066,-1158 470.3066,-1152 476.3066,-1152 476.3066,-1152 589.6995,-1152 589.6995,-1152 595.6995,-1152 601.6995,-1158 601.6995,-1164 601.6995,-1164 601.6995,-1176 601.6995,-1176 601.6995,-1182 595.6995,-1188 589.6995,-1188"/>
<text text-anchor="middle" x="533.0031" y="-1167" font-family="sans" font-size="10.00" fill="#000000">relatedness_exclude_failed</text>
</g>
<!-- 4&#45;&gt;19 -->
<g id="edge35" class="edge">
<title>4&#45;&gt;19</title>
<path fill="none" stroke="#c0c0c0" stroke-width="2" d="M565.9,-1223.8314C560.9356,-1215.7079 554.9809,-1205.9637 549.5103,-1197.0118"/>
<polygon fill="#c0c0c0" stroke="#c0c0c0" stroke-width="2" points="552.4567,-1195.121 544.2556,-1188.4133 546.4837,-1198.7712 552.4567,-1195.121"/>
</g>
<!-- 5 -->
<g id="node6" class="node">
<title>5</title>
<path fill="none" stroke="#5663d8" stroke-width="2" stroke-dasharray="5,2" d="M798.0714,-1620C798.0714,-1620 705.9347,-1620 705.9347,-1620 699.9347,-1620 693.9347,-1614 693.9347,-1608 693.9347,-1608 693.9347,-1596 693.9347,-1596 693.9347,-1590 699.9347,-1584 705.9347,-1584 705.9347,-1584 798.0714,-1584 798.0714,-1584 804.0714,-1584 810.0714,-1590 810.0714,-1596 810.0714,-1596 810.0714,-1608 810.0714,-1608 810.0714,-1614 804.0714,-1620 798.0714,-1620"/>
<text text-anchor="middle" x="752.0031" y="-1604" font-family="sans" font-size="10.00" fill="#000000">sex_sample_fail</text>
<text text-anchor="middle" x="752.0031" y="-1594" font-family="sans" font-size="10.00" fill="#000000">sample: ADNI_1_hg19</text>
</g>
<!-- 5&#45;&gt;1 -->
<g id="edge5" class="edge">
<title>5&#45;&gt;1</title>
<path fill="none" stroke="#c0c0c0" stroke-width="2" d="M752.0031,-1583.8146C752.0031,-1556.4983 752.0031,-1503.25 752.0031,-1458 752.0031,-1458 752.0031,-1458 752.0031,-306 752.0031,-264.6022 751.0553,-250.3856 728.0031,-216 720.2378,-204.417 709.1508,-194.3014 698.0397,-186.054"/>
<polygon fill="#c0c0c0" stroke="#c0c0c0" stroke-width="2" points="699.7871,-183.0041 689.5929,-180.118 695.7622,-188.7313 699.7871,-183.0041"/>
</g>
<!-- 18 -->
<g id="node19" class="node">
<title>18</title>
<path fill="none" stroke="#d88556" stroke-width="2" stroke-dasharray="5,2" d="M473.1239,-1548C473.1239,-1548 390.8823,-1548 390.8823,-1548 384.8823,-1548 378.8823,-1542 378.8823,-1536 378.8823,-1536 378.8823,-1524 378.8823,-1524 378.8823,-1518 384.8823,-1512 390.8823,-1512 390.8823,-1512 473.1239,-1512 473.1239,-1512 479.1239,-1512 485.1239,-1518 485.1239,-1524 485.1239,-1524 485.1239,-1536 485.1239,-1536 485.1239,-1542 479.1239,-1548 473.1239,-1548"/>
<text text-anchor="middle" x="432.0031" y="-1527" font-family="sans" font-size="10.00" fill="#000000">sex__exclude_failed</text>
</g>
<!-- 5&#45;&gt;18 -->
<g id="edge33" class="edge">
<title>5&#45;&gt;18</title>
<path fill="none" stroke="#c0c0c0" stroke-width="2" d="M693.6822,-1588.8778C637.5622,-1576.2508 552.9457,-1557.2121 495.233,-1544.2267"/>
<polygon fill="#c0c0c0" stroke="#c0c0c0" stroke-width="2" points="495.665,-1540.7365 485.1406,-1541.9559 494.1283,-1547.5658 495.665,-1540.7365"/>
</g>
<!-- 6 -->
<g id="node7" class="node">
<title>6</title>
<path fill="none" stroke="#56c9d8" stroke-width="2" stroke-dasharray="5,2" d="M545.9289,-1620C545.9289,-1620 480.0772,-1620 480.0772,-1620 474.0772,-1620 468.0772,-1614 468.0772,-1608 468.0772,-1608 468.0772,-1596 468.0772,-1596 468.0772,-1590 474.0772,-1584 480.0772,-1584 480.0772,-1584 545.9289,-1584 545.9289,-1584 551.9289,-1584 557.9289,-1590 557.9289,-1596 557.9289,-1596 557.9289,-1608 557.9289,-1608 557.9289,-1614 551.9289,-1620 545.9289,-1620"/>
<text text-anchor="middle" x="513.0031" y="-1599" font-family="sans" font-size="10.00" fill="#000000">sample_callRate</text>
</g>
<!-- 6&#45;&gt;1 -->
<g id="edge6" class="edge">
<title>6&#45;&gt;1</title>
<path fill="none" stroke="#c0c0c0" stroke-width="2" d="M526.1912,-1583.8342C570.9083,-1520.3909 714.0031,-1301.4758 714.0031,-1098 714.0031,-1098 714.0031,-1098 714.0031,-306 714.0031,-262.7597 691.5085,-217.0187 674.7818,-188.9832"/>
<polygon fill="#c0c0c0" stroke="#c0c0c0" stroke-width="2" points="677.5905,-186.8688 669.3712,-180.1834 671.6275,-190.5353 677.5905,-186.8688"/>
</g>
<!-- 6&#45;&gt;18 -->
<g id="edge32" class="edge">
<title>6&#45;&gt;18</title>
<path fill="none" stroke="#c0c0c0" stroke-width="2" d="M492.5633,-1583.8314C482.6826,-1575.0485 470.6707,-1564.3712 459.958,-1554.8489"/>
<polygon fill="#c0c0c0" stroke="#c0c0c0" stroke-width="2" points="462.2356,-1552.1906 452.4362,-1548.1628 457.5851,-1557.4224 462.2356,-1552.1906"/>
</g>
<!-- 7 -->
<g id="node8" class="node">
<title>7</title>
<path fill="none" stroke="#568ad8" stroke-width="2" stroke-dasharray="5,2" d="M635.845,-1044C635.845,-1044 526.1612,-1044 526.1612,-1044 520.1612,-1044 514.1612,-1038 514.1612,-1032 514.1612,-1032 514.1612,-1020 514.1612,-1020 514.1612,-1014 520.1612,-1008 526.1612,-1008 526.1612,-1008 635.845,-1008 635.845,-1008 641.845,-1008 647.845,-1014 647.845,-1020 647.845,-1020 647.845,-1032 647.845,-1032 647.845,-1038 641.845,-1044 635.845,-1044"/>
<text text-anchor="middle" x="581.0031" y="-1023" font-family="sans" font-size="10.00" fill="#000000">heterozigosity_sample_fail</text>
</g>
<!-- 7&#45;&gt;1 -->
<g id="edge7" class="edge">
<title>7&#45;&gt;1</title>
<path fill="none" stroke="#c0c0c0" stroke-width="2" d="M593.3712,-1007.8166C610.1354,-981.3548 638.0031,-930.1283 638.0031,-882 638.0031,-882 638.0031,-882 638.0031,-306 638.0031,-265.5282 645.471,-219.2037 651.0431,-190.2725"/>
<polygon fill="#c0c0c0" stroke="#c0c0c0" stroke-width="2" points="654.5513,-190.5746 653.0662,-180.0844 647.6854,-189.2111 654.5513,-190.5746"/>
</g>
<!-- 28 -->
<g id="node29" class="node">
<title>28</title>
<path fill="none" stroke="#56d8a2" stroke-width="2" stroke-dasharray="5,2" d="M583.6995,-972C583.6995,-972 460.3066,-972 460.3066,-972 454.3066,-972 448.3066,-966 448.3066,-960 448.3066,-960 448.3066,-948 448.3066,-948 448.3066,-942 454.3066,-936 460.3066,-936 460.3066,-936 583.6995,-936 583.6995,-936 589.6995,-936 595.6995,-942 595.6995,-948 595.6995,-948 595.6995,-960 595.6995,-960 595.6995,-966 589.6995,-972 583.6995,-972"/>
<text text-anchor="middle" x="522.0031" y="-951" font-family="sans" font-size="10.00" fill="#000000">heterozigosity_exclude_failed</text>
</g>
<!-- 7&#45;&gt;28 -->
<g id="edge51" class="edge">
<title>7&#45;&gt;28</title>
<path fill="none" stroke="#c0c0c0" stroke-width="2" d="M566.1149,-1007.8314C559.2501,-999.454 550.973,-989.3531 543.452,-980.1749"/>
<polygon fill="#c0c0c0" stroke="#c0c0c0" stroke-width="2" points="546.1372,-977.9297 537.0917,-972.4133 540.7228,-982.3665 546.1372,-977.9297"/>
</g>
<!-- 8 -->
<g id="node9" class="node">
<title>8</title>
<path fill="none" stroke="#56d8b1" stroke-width="2" stroke-dasharray="5,2" d="M363.7934,-252C363.7934,-252 254.2127,-252 254.2127,-252 248.2127,-252 242.2127,-246 242.2127,-240 242.2127,-240 242.2127,-228 242.2127,-228 242.2127,-222 248.2127,-216 254.2127,-216 254.2127,-216 363.7934,-216 363.7934,-216 369.7934,-216 375.7934,-222 375.7934,-228 375.7934,-228 375.7934,-240 375.7934,-240 375.7934,-246 369.7934,-252 363.7934,-252"/>
<text text-anchor="middle" x="309.0031" y="-231" font-family="sans" font-size="10.00" fill="#000000">ExcludePopulationOutliers</text>
</g>
<!-- 8&#45;&gt;1 -->
<g id="edge8" class="edge">
<title>8&#45;&gt;1</title>
<path fill="none" stroke="#c0c0c0" stroke-width="2" d="M375.6892,-220.2029C440.9351,-206.7037 539.209,-186.3712 600.6564,-173.6579"/>
<polygon fill="#c0c0c0" stroke="#c0c0c0" stroke-width="2" points="601.4809,-177.0616 610.5644,-171.608 600.0626,-170.2067 601.4809,-177.0616"/>
</g>
<!-- 8&#45;&gt;3 -->
<g id="edge15" class="edge">
<title>8&#45;&gt;3</title>
<path fill="none" stroke="#c0c0c0" stroke-width="2" d="M253.7717,-215.9243C223.4349,-205.9959 185.6365,-193.6255 153.8976,-183.2382"/>
<polygon fill="#c0c0c0" stroke="#c0c0c0" stroke-width="2" points="154.8497,-179.8672 144.2571,-180.0831 152.6724,-186.52 154.8497,-179.8672"/>
</g>
<!-- 9 -->
<g id="node10" class="node">
<title>9</title>
<path fill="none" stroke="#56d8c1" stroke-width="2" stroke-dasharray="5,2" d="M415.2642,-1332C415.2642,-1332 350.7419,-1332 350.7419,-1332 344.7419,-1332 338.7419,-1326 338.7419,-1320 338.7419,-1320 338.7419,-1308 338.7419,-1308 338.7419,-1302 344.7419,-1296 350.7419,-1296 350.7419,-1296 415.2642,-1296 415.2642,-1296 421.2642,-1296 427.2642,-1302 427.2642,-1308 427.2642,-1308 427.2642,-1320 427.2642,-1320 427.2642,-1326 421.2642,-1332 415.2642,-1332"/>
<text text-anchor="middle" x="383.0031" y="-1311" font-family="sans" font-size="10.00" fill="#000000">relatedness_QC</text>
</g>
<!-- 9&#45;&gt;2 -->
<g id="edge9" class="edge">
<title>9&#45;&gt;2</title>
<path fill="none" stroke="#c0c0c0" stroke-width="2" d="M338.6886,-1298.0142C289.214,-1276.9794 216.0031,-1234.8899 216.0031,-1170 216.0031,-1170 216.0031,-1170 216.0031,-522 216.0031,-425.9959 214.0031,-402.0041 214.0031,-306 214.0031,-306 214.0031,-306 214.0031,-234 214.0031,-192.3681 198.9703,-146.14 187.8149,-117.567"/>
<polygon fill="#c0c0c0" stroke="#c0c0c0" stroke-width="2" points="191.0399,-116.2055 184.0619,-108.2332 184.5453,-118.817 191.0399,-116.2055"/>
</g>
<!-- 9&#45;&gt;4 -->
<g id="edge17" class="edge">
<title>9&#45;&gt;4</title>
<path fill="none" stroke="#c0c0c0" stroke-width="2" d="M427.5106,-1297.4817C454.5463,-1287.4479 489.3675,-1274.5245 518.6003,-1263.6752"/>
<polygon fill="#c0c0c0" stroke="#c0c0c0" stroke-width="2" points="520.1232,-1266.8434 528.2805,-1260.0826 517.6875,-1260.2808 520.1232,-1266.8434"/>
</g>
<!-- 10 -->
<g id="node11" class="node">
<title>10</title>
<path fill="none" stroke="#d8cb56" stroke-width="2" stroke-dasharray="5,2" d="M439.4484,-324C439.4484,-324 348.5577,-324 348.5577,-324 342.5577,-324 336.5577,-318 336.5577,-312 336.5577,-312 336.5577,-300 336.5577,-300 336.5577,-294 342.5577,-288 348.5577,-288 348.5577,-288 439.4484,-288 439.4484,-288 445.4484,-288 451.4484,-294 451.4484,-300 451.4484,-300 451.4484,-312 451.4484,-312 451.4484,-318 445.4484,-324 439.4484,-324"/>
<text text-anchor="middle" x="394.0031" y="-303" font-family="sans" font-size="10.00" fill="#000000">PcaPopulationOutliers</text>
</g>
<!-- 10&#45;&gt;2 -->
<g id="edge10" class="edge">
<title>10&#45;&gt;2</title>
<path fill="none" stroke="#c0c0c0" stroke-width="2" d="M396.6851,-287.9166C398.591,-268.5794 398.7691,-237.7647 385.0031,-216 351.1374,-162.4567 285.5273,-128.4747 236.8114,-109.4701"/>
<polygon fill="#c0c0c0" stroke="#c0c0c0" stroke-width="2" points="237.8992,-106.1395 227.3079,-105.8675 235.4179,-112.685 237.8992,-106.1395"/>
</g>
<!-- 10&#45;&gt;8 -->
<g id="edge22" class="edge">
<title>10&#45;&gt;8</title>
<path fill="none" stroke="#c0c0c0" stroke-width="2" d="M372.554,-287.8314C362.1853,-279.0485 349.5802,-268.3712 338.3385,-258.8489"/>
<polygon fill="#c0c0c0" stroke="#c0c0c0" stroke-width="2" points="340.338,-255.9556 330.4453,-252.1628 335.8135,-261.297 340.338,-255.9556"/>
</g>
<!-- 11 -->
<g id="node12" class="node">
<title>11</title>
<path fill="none" stroke="#afd856" stroke-width="2" stroke-dasharray="5,2" d="M559.0714,-1692C559.0714,-1692 466.9347,-1692 466.9347,-1692 460.9347,-1692 454.9347,-1686 454.9347,-1680 454.9347,-1680 454.9347,-1668 454.9347,-1668 454.9347,-1662 460.9347,-1656 466.9347,-1656 466.9347,-1656 559.0714,-1656 559.0714,-1656 565.0714,-1656 571.0714,-1662 571.0714,-1668 571.0714,-1668 571.0714,-1680 571.0714,-1680 571.0714,-1686 565.0714,-1692 559.0714,-1692"/>
<text text-anchor="middle" x="513.0031" y="-1676" font-family="sans" font-size="10.00" fill="#000000">snp_qc</text>
<text text-anchor="middle" x="513.0031" y="-1666" font-family="sans" font-size="10.00" fill="#000000">sample: ADNI_1_hg19</text>
</g>
<!-- 11&#45;&gt;2 -->
<g id="edge11" class="edge">
<title>11&#45;&gt;2</title>
<path fill="none" stroke="#c0c0c0" stroke-width="2" d="M454.8824,-1669.9483C320.9497,-1659.0191 2.0031,-1623.2074 2.0031,-1530 2.0031,-1530 2.0031,-1530 2.0031,-234 2.0031,-193.1184 -6.0092,-174.6863 21.0031,-144 33.8796,-129.372 77.2433,-114.9602 114.8406,-104.7092"/>
<polygon fill="#c0c0c0" stroke="#c0c0c0" stroke-width="2" points="115.9962,-108.0234 124.7558,-102.0636 114.1915,-101.26 115.9962,-108.0234"/>
</g>
<!-- 11&#45;&gt;4 -->
<g id="edge16" class="edge">
<title>11&#45;&gt;4</title>
<path fill="none" stroke="#c0c0c0" stroke-width="2" d="M555.6221,-1655.976C600.8935,-1633.6355 666.0031,-1590.9165 666.0031,-1530 666.0031,-1530 666.0031,-1530 666.0031,-1386 666.0031,-1338.9216 631.1559,-1294.3783 605.0716,-1267.6306"/>
<polygon fill="#c0c0c0" stroke="#c0c0c0" stroke-width="2" points="607.2036,-1264.8147 597.6452,-1260.2445 602.2673,-1269.7779 607.2036,-1264.8147"/>
</g>
<!-- 11&#45;&gt;6 -->
<g id="edge19" class="edge">
<title>11&#45;&gt;6</title>
<path fill="none" stroke="#c0c0c0" stroke-width="2" d="M513.0031,-1655.8314C513.0031,-1648.131 513.0031,-1638.9743 513.0031,-1630.4166"/>
<polygon fill="#c0c0c0" stroke="#c0c0c0" stroke-width="2" points="516.5032,-1630.4132 513.0031,-1620.4133 509.5032,-1630.4133 516.5032,-1630.4132"/>
</g>
<!-- 12 -->
<g id="node13" class="node">
<title>12</title>
<path fill="none" stroke="#569ad8" stroke-width="2" stroke-dasharray="5,2" d="M338.878,-1404C338.878,-1404 283.1282,-1404 283.1282,-1404 277.1282,-1404 271.1282,-1398 271.1282,-1392 271.1282,-1392 271.1282,-1380 271.1282,-1380 271.1282,-1374 277.1282,-1368 283.1282,-1368 283.1282,-1368 338.878,-1368 338.878,-1368 344.878,-1368 350.878,-1374 350.878,-1380 350.878,-1380 350.878,-1392 350.878,-1392 350.878,-1398 344.878,-1404 338.878,-1404"/>
<text text-anchor="middle" x="311.0031" y="-1383" font-family="sans" font-size="10.00" fill="#000000">sample_prune</text>
</g>
<!-- 12&#45;&gt;2 -->
<g id="edge12" class="edge">
<title>12&#45;&gt;2</title>
<path fill="none" stroke="#c0c0c0" stroke-width="2" d="M271.2652,-1374.3443C246.8623,-1365.672 216.1475,-1351.873 194.0031,-1332 159.2858,-1300.8438 140.0031,-1288.6476 140.0031,-1242 140.0031,-1242 140.0031,-1242 140.0031,-522 140.0031,-369.1223 162.6695,-186.8608 172.0313,-118.1021"/>
<polygon fill="#c0c0c0" stroke="#c0c0c0" stroke-width="2" points="175.5167,-118.4472 173.414,-108.0632 168.5822,-117.492 175.5167,-118.4472"/>
</g>
<!-- 12&#45;&gt;3 -->
<g id="edge14" class="edge">
<title>12&#45;&gt;3</title>
<path fill="none" stroke="#c0c0c0" stroke-width="2" d="M271.0782,-1378.7534C223.2464,-1369.3387 146.9271,-1351.7519 126.0031,-1332 95.132,-1302.8582 94.0031,-1284.4532 94.0031,-1242 94.0031,-1242 94.0031,-1242 94.0031,-306 94.0031,-265.8518 92.0378,-219.4451 90.5715,-190.4076"/>
<polygon fill="#c0c0c0" stroke="#c0c0c0" stroke-width="2" points="94.0542,-189.9829 90.0391,-180.1784 87.0637,-190.3468 94.0542,-189.9829"/>
</g>
<!-- 12&#45;&gt;8 -->
<g id="edge21" class="edge">
<title>12&#45;&gt;8</title>
<path fill="none" stroke="#c0c0c0" stroke-width="2" d="M276.4061,-1367.9586C236.9988,-1344.6334 178.0031,-1300.0242 178.0031,-1242 178.0031,-1242 178.0031,-1242 178.0031,-522 178.0031,-417.3272 250.5883,-308.9081 287.6983,-260.3177"/>
<polygon fill="#c0c0c0" stroke="#c0c0c0" stroke-width="2" points="290.6114,-262.2727 293.9757,-252.2262 285.0806,-257.982 290.6114,-262.2727"/>
</g>
<!-- 12&#45;&gt;9 -->
<g id="edge23" class="edge">
<title>12&#45;&gt;9</title>
<path fill="none" stroke="#c0c0c0" stroke-width="2" d="M329.1717,-1367.8314C337.7183,-1359.2848 348.0587,-1348.9443 357.3832,-1339.6198"/>
<polygon fill="#c0c0c0" stroke="#c0c0c0" stroke-width="2" points="359.9936,-1341.9592 364.5898,-1332.4133 355.0438,-1337.0095 359.9936,-1341.9592"/>
</g>
<!-- 12&#45;&gt;19 -->
<g id="edge34" class="edge">
<title>12&#45;&gt;19</title>
<path fill="none" stroke="#c0c0c0" stroke-width="2" d="M310.7739,-1367.7912C311.3959,-1348.3469 314.9637,-1317.4412 330.0031,-1296 364.9895,-1246.1207 426.6549,-1211.9999 472.8677,-1191.9746"/>
<polygon fill="#c0c0c0" stroke="#c0c0c0" stroke-width="2" points="474.3371,-1195.1534 482.1852,-1188.0359 471.6116,-1188.7057 474.3371,-1195.1534"/>
</g>
<!-- 13 -->
<g id="node14" class="node">
<title>13</title>
<path fill="none" stroke="#d8ac56" stroke-width="2" stroke-dasharray="5,2" d="M815.035,-1692C815.035,-1692 688.9711,-1692 688.9711,-1692 682.9711,-1692 676.9711,-1686 676.9711,-1680 676.9711,-1680 676.9711,-1668 676.9711,-1668 676.9711,-1662 682.9711,-1656 688.9711,-1656 688.9711,-1656 815.035,-1656 815.035,-1656 821.035,-1656 827.035,-1662 827.035,-1668 827.035,-1668 827.035,-1680 827.035,-1680 827.035,-1686 821.035,-1692 815.035,-1692"/>
<text text-anchor="middle" x="752.0031" y="-1676" font-family="sans" font-size="10.00" fill="#000000">sexcheck_QC</text>
<text text-anchor="middle" x="752.0031" y="-1666" font-family="sans" font-size="10.00" fill="#000000">SampleSex: ADNI_1_hg19_xy</text>
</g>
<!-- 13&#45;&gt;5 -->
<g id="edge18" class="edge">
<title>13&#45;&gt;5</title>
<path fill="none" stroke="#c0c0c0" stroke-width="2" d="M752.0031,-1655.8314C752.0031,-1648.131 752.0031,-1638.9743 752.0031,-1630.4166"/>
<polygon fill="#c0c0c0" stroke="#c0c0c0" stroke-width="2" points="755.5032,-1630.4132 752.0031,-1620.4133 748.5032,-1630.4133 755.5032,-1630.4132"/>
</g>
<!-- 14 -->
<g id="node15" class="node">
<title>14</title>
<path fill="none" stroke="#d8bc56" stroke-width="2" stroke-dasharray="5,2" d="M609.2641,-1116C609.2641,-1116 534.742,-1116 534.742,-1116 528.742,-1116 522.742,-1110 522.742,-1104 522.742,-1104 522.742,-1092 522.742,-1092 522.742,-1086 528.742,-1080 534.742,-1080 534.742,-1080 609.2641,-1080 609.2641,-1080 615.2641,-1080 621.2641,-1086 621.2641,-1092 621.2641,-1092 621.2641,-1104 621.2641,-1104 621.2641,-1110 615.2641,-1116 609.2641,-1116"/>
<text text-anchor="middle" x="572.0031" y="-1095" font-family="sans" font-size="10.00" fill="#000000">heterozigosity_QC</text>
</g>
<!-- 14&#45;&gt;7 -->
<g id="edge20" class="edge">
<title>14&#45;&gt;7</title>
<path fill="none" stroke="#c0c0c0" stroke-width="2" d="M574.2741,-1079.8314C575.2367,-1072.131 576.3813,-1062.9743 577.451,-1054.4166"/>
<polygon fill="#c0c0c0" stroke="#c0c0c0" stroke-width="2" points="580.9339,-1054.7702 578.7014,-1044.4133 573.988,-1053.9019 580.9339,-1054.7702"/>
</g>
<!-- 15 -->
<g id="node16" class="node">
<title>15</title>
<path fill="none" stroke="#56a9d8" stroke-width="2" stroke-dasharray="5,2" d="M447.3924,-468C447.3924,-468 356.6137,-468 356.6137,-468 350.6137,-468 344.6137,-462 344.6137,-456 344.6137,-456 344.6137,-444 344.6137,-444 344.6137,-438 350.6137,-432 356.6137,-432 356.6137,-432 447.3924,-432 447.3924,-432 453.3924,-432 459.3924,-438 459.3924,-444 459.3924,-444 459.3924,-456 459.3924,-456 459.3924,-462 453.3924,-468 447.3924,-468"/>
<text text-anchor="middle" x="402.0031" y="-447" font-family="sans" font-size="10.00" fill="#000000">Plink_RefenceSample</text>
</g>
<!-- 15&#45;&gt;10 -->
<g id="edge24" class="edge">
<title>15&#45;&gt;10</title>
<path fill="none" stroke="#c0c0c0" stroke-width="2" d="M398.1617,-431.6001C396.1865,-421.2025 393.9908,-407.9346 393.0031,-396 391.306,-375.4951 391.6193,-352.2739 392.3238,-334.5552"/>
<polygon fill="#c0c0c0" stroke="#c0c0c0" stroke-width="2" points="395.8319,-334.4586 392.7985,-324.3073 388.8394,-334.1346 395.8319,-334.4586"/>
</g>
<!-- 16 -->
<g id="node17" class="node">
<title>16</title>
<path fill="none" stroke="#56d882" stroke-width="2" stroke-dasharray="5,2" d="M444.0031,-396C444.0031,-396 414.0031,-396 414.0031,-396 408.0031,-396 402.0031,-390 402.0031,-384 402.0031,-384 402.0031,-372 402.0031,-372 402.0031,-366 408.0031,-360 414.0031,-360 414.0031,-360 444.0031,-360 444.0031,-360 450.0031,-360 456.0031,-366 456.0031,-372 456.0031,-372 456.0031,-384 456.0031,-384 456.0031,-390 450.0031,-396 444.0031,-396"/>
<text text-anchor="middle" x="429.0031" y="-375" font-family="sans" font-size="10.00" fill="#000000">fix_fam</text>
</g>
<!-- 15&#45;&gt;16 -->
<g id="edge30" class="edge">
<title>15&#45;&gt;16</title>
<path fill="none" stroke="#c0c0c0" stroke-width="2" d="M408.8163,-431.8314C411.7674,-423.9617 415.2889,-414.5712 418.5581,-405.8533"/>
<polygon fill="#c0c0c0" stroke="#c0c0c0" stroke-width="2" points="421.8639,-407.0055 422.0981,-396.4133 415.3096,-404.5476 421.8639,-407.0055"/>
</g>
<!-- 16&#45;&gt;10 -->
<g id="edge25" class="edge">
<title>16&#45;&gt;10</title>
<path fill="none" stroke="#c0c0c0" stroke-width="2" d="M420.1711,-359.8314C416.3044,-351.8771 411.6825,-342.369 407.4063,-333.5723"/>
<polygon fill="#c0c0c0" stroke="#c0c0c0" stroke-width="2" points="410.4737,-331.8768 402.954,-324.4133 404.1781,-334.9371 410.4737,-331.8768"/>
</g>
<!-- 17 -->
<g id="node18" class="node">
<title>17</title>
<path fill="none" stroke="#56d892" stroke-width="2" stroke-dasharray="5,2" d="M362.8732,-1476C362.8732,-1476 317.1329,-1476 317.1329,-1476 311.1329,-1476 305.1329,-1470 305.1329,-1464 305.1329,-1464 305.1329,-1452 305.1329,-1452 305.1329,-1446 311.1329,-1440 317.1329,-1440 317.1329,-1440 362.8732,-1440 362.8732,-1440 368.8732,-1440 374.8732,-1446 374.8732,-1452 374.8732,-1452 374.8732,-1464 374.8732,-1464 374.8732,-1470 368.8732,-1476 362.8732,-1476"/>
<text text-anchor="middle" x="340.0031" y="-1455" font-family="sans" font-size="10.00" fill="#000000">Prune_snps</text>
</g>
<!-- 17&#45;&gt;12 -->
<g id="edge26" class="edge">
<title>17&#45;&gt;12</title>
<path fill="none" stroke="#c0c0c0" stroke-width="2" d="M332.6851,-1439.8314C329.5154,-1431.9617 325.7331,-1422.5712 322.2217,-1413.8533"/>
<polygon fill="#c0c0c0" stroke="#c0c0c0" stroke-width="2" points="325.4022,-1412.3815 318.4195,-1404.4133 318.9091,-1414.9968 325.4022,-1412.3815"/>
</g>
<!-- 18&#45;&gt;12 -->
<g id="edge27" class="edge">
<title>18&#45;&gt;12</title>
<path fill="none" stroke="#c0c0c0" stroke-width="2" d="M425.0674,-1511.6492C417.1637,-1492.3649 402.8602,-1461.8534 384.0031,-1440 374.307,-1428.7633 361.8692,-1418.4879 350.0179,-1409.9865"/>
<polygon fill="#c0c0c0" stroke="#c0c0c0" stroke-width="2" points="351.7546,-1406.9322 341.5394,-1404.1214 347.7722,-1412.689 351.7546,-1406.9322"/>
</g>
<!-- 18&#45;&gt;17 -->
<g id="edge31" class="edge">
<title>18&#45;&gt;17</title>
<path fill="none" stroke="#c0c0c0" stroke-width="2" d="M408.7876,-1511.8314C397.456,-1502.9632 383.6567,-1492.1637 371.4004,-1482.5718"/>
<polygon fill="#c0c0c0" stroke="#c0c0c0" stroke-width="2" points="373.2433,-1479.5697 363.2111,-1476.1628 368.9291,-1485.0822 373.2433,-1479.5697"/>
</g>
<!-- 19&#45;&gt;14 -->
<g id="edge28" class="edge">
<title>19&#45;&gt;14</title>
<path fill="none" stroke="#c0c0c0" stroke-width="2" d="M542.8444,-1151.8314C547.1988,-1143.7925 552.4128,-1134.1666 557.22,-1125.2918"/>
<polygon fill="#c0c0c0" stroke="#c0c0c0" stroke-width="2" points="560.3439,-1126.8732 562.0292,-1116.4133 554.1888,-1123.5392 560.3439,-1126.8732"/>
</g>
<!-- 19&#45;&gt;28 -->
<g id="edge50" class="edge">
<title>19&#45;&gt;28</title>
<path fill="none" stroke="#c0c0c0" stroke-width="2" d="M525.5016,-1151.7967C521.5218,-1141.4606 516.8742,-1128.1888 514.0031,-1116 502.9594,-1069.1168 497.6863,-1055.6074 505.0031,-1008 506.3405,-999.2979 508.8234,-990.074 511.4865,-981.759"/>
<polygon fill="#c0c0c0" stroke="#c0c0c0" stroke-width="2" points="514.8437,-982.7579 514.7592,-972.1634 508.2184,-980.4982 514.8437,-982.7579"/>
</g>
<!-- 20 -->
<g id="node21" class="node">
<title>20</title>
<path fill="none" stroke="#9fd856" stroke-width="2" stroke-dasharray="5,2" d="M450.5617,-540C450.5617,-540 353.4445,-540 353.4445,-540 347.4445,-540 341.4445,-534 341.4445,-528 341.4445,-528 341.4445,-516 341.4445,-516 341.4445,-510 347.4445,-504 353.4445,-504 353.4445,-504 450.5617,-504 450.5617,-504 456.5617,-504 462.5617,-510 462.5617,-516 462.5617,-516 462.5617,-528 462.5617,-528 462.5617,-534 456.5617,-540 450.5617,-540"/>
<text text-anchor="middle" x="402.0031" y="-519" font-family="sans" font-size="10.00" fill="#000000">Merge_RefenceSample</text>
</g>
<!-- 20&#45;&gt;15 -->
<g id="edge29" class="edge">
<title>20&#45;&gt;15</title>
<path fill="none" stroke="#c0c0c0" stroke-width="2" d="M402.0031,-503.8314C402.0031,-496.131 402.0031,-486.9743 402.0031,-478.4166"/>
<polygon fill="#c0c0c0" stroke="#c0c0c0" stroke-width="2" points="405.5032,-478.4132 402.0031,-468.4133 398.5032,-478.4133 405.5032,-478.4132"/>
</g>
<!-- 21 -->
<g id="node22" class="node">
<title>21</title>
<path fill="none" stroke="#61d856" stroke-width="2" stroke-dasharray="5,2" d="M579.6555,-756C579.6555,-756 506.3506,-756 506.3506,-756 500.3506,-756 494.3506,-750 494.3506,-744 494.3506,-744 494.3506,-732 494.3506,-732 494.3506,-726 500.3506,-720 506.3506,-720 506.3506,-720 579.6555,-720 579.6555,-720 585.6555,-720 591.6555,-726 591.6555,-732 591.6555,-732 591.6555,-744 591.6555,-744 591.6555,-750 585.6555,-756 579.6555,-756"/>
<text text-anchor="middle" x="543.0031" y="-735" font-family="sans" font-size="10.00" fill="#000000">Sample_Plink2Bcf</text>
</g>
<!-- 21&#45;&gt;20 -->
<g id="edge36" class="edge">
<title>21&#45;&gt;20</title>
<path fill="none" stroke="#c0c0c0" stroke-width="2" d="M553.2884,-719.9703C570.1313,-687.7886 598.7092,-619.7374 567.0031,-576 555.3426,-559.9148 511.9371,-546.0763 472.5731,-536.436"/>
<polygon fill="#c0c0c0" stroke="#c0c0c0" stroke-width="2" points="473.2131,-532.9906 462.6741,-534.0767 471.5902,-539.7999 473.2131,-532.9906"/>
</g>
<!-- 24 -->
<g id="node25" class="node">
<title>24</title>
<path fill="none" stroke="#d87556" stroke-width="2" stroke-dasharray="5,2" d="M546.3827,-612C546.3827,-612 475.6234,-612 475.6234,-612 469.6234,-612 463.6234,-606 463.6234,-600 463.6234,-600 463.6234,-588 463.6234,-588 463.6234,-582 469.6234,-576 475.6234,-576 475.6234,-576 546.3827,-576 546.3827,-576 552.3827,-576 558.3827,-582 558.3827,-588 558.3827,-588 558.3827,-600 558.3827,-600 558.3827,-606 552.3827,-612 546.3827,-612"/>
<text text-anchor="middle" x="511.0031" y="-591" font-family="sans" font-size="10.00" fill="#000000">Sample_IndexBcf</text>
</g>
<!-- 21&#45;&gt;24 -->
<g id="edge44" class="edge">
<title>21&#45;&gt;24</title>
<path fill="none" stroke="#c0c0c0" stroke-width="2" d="M538.9502,-719.7623C533.4681,-695.0928 523.6386,-650.8598 517.2193,-621.9731"/>
<polygon fill="#c0c0c0" stroke="#c0c0c0" stroke-width="2" points="520.609,-621.0922 515.023,-612.0896 513.7757,-622.6108 520.609,-621.0922"/>
</g>
<!-- 22 -->
<g id="node23" class="node">
<title>22</title>
<path fill="none" stroke="#d85656" stroke-width="2" stroke-dasharray="5,2" d="M395.8875,-684C395.8875,-684 310.1186,-684 310.1186,-684 304.1186,-684 298.1186,-678 298.1186,-672 298.1186,-672 298.1186,-660 298.1186,-660 298.1186,-654 304.1186,-648 310.1186,-648 310.1186,-648 395.8875,-648 395.8875,-648 401.8875,-648 407.8875,-654 407.8875,-660 407.8875,-660 407.8875,-672 407.8875,-672 407.8875,-678 401.8875,-684 395.8875,-684"/>
<text text-anchor="middle" x="353.0031" y="-663" font-family="sans" font-size="10.00" fill="#000000">Reference_Plink2Bcf</text>
</g>
<!-- 22&#45;&gt;20 -->
<g id="edge37" class="edge">
<title>22&#45;&gt;20</title>
<path fill="none" stroke="#c0c0c0" stroke-width="2" d="M341.601,-647.9509C331.3126,-629.1853 319.4281,-599.3458 331.0031,-576 336.9782,-563.9485 347.0723,-553.8585 357.8023,-545.7863"/>
<polygon fill="#c0c0c0" stroke="#c0c0c0" stroke-width="2" points="359.8807,-548.6039 366.074,-540.0077 355.8718,-542.8655 359.8807,-548.6039"/>
</g>
<!-- 23 -->
<g id="node24" class="node">
<title>23</title>
<path fill="none" stroke="#70d856" stroke-width="2" stroke-dasharray="5,2" d="M434.1141,-612C434.1141,-612 351.892,-612 351.892,-612 345.892,-612 339.892,-606 339.892,-600 339.892,-600 339.892,-588 339.892,-588 339.892,-582 345.892,-576 351.892,-576 351.892,-576 434.1141,-576 434.1141,-576 440.1141,-576 446.1141,-582 446.1141,-588 446.1141,-588 446.1141,-600 446.1141,-600 446.1141,-606 440.1141,-612 434.1141,-612"/>
<text text-anchor="middle" x="393.0031" y="-591" font-family="sans" font-size="10.00" fill="#000000">Reference_IndexBcf</text>
</g>
<!-- 22&#45;&gt;23 -->
<g id="edge43" class="edge">
<title>22&#45;&gt;23</title>
<path fill="none" stroke="#c0c0c0" stroke-width="2" d="M363.0967,-647.8314C367.5628,-639.7925 372.9105,-630.1666 377.841,-621.2918"/>
<polygon fill="#c0c0c0" stroke="#c0c0c0" stroke-width="2" points="380.9765,-622.8546 382.7735,-612.4133 374.8574,-619.4551 380.9765,-622.8546"/>
</g>
<!-- 23&#45;&gt;20 -->
<g id="edge38" class="edge">
<title>23&#45;&gt;20</title>
<path fill="none" stroke="#c0c0c0" stroke-width="2" d="M395.2741,-575.8314C396.2367,-568.131 397.3813,-558.9743 398.451,-550.4166"/>
<polygon fill="#c0c0c0" stroke="#c0c0c0" stroke-width="2" points="401.9339,-550.7702 399.7014,-540.4133 394.988,-549.9019 401.9339,-550.7702"/>
</g>
<!-- 24&#45;&gt;20 -->
<g id="edge39" class="edge">
<title>24&#45;&gt;20</title>
<path fill="none" stroke="#c0c0c0" stroke-width="2" d="M483.4978,-575.8314C469.6851,-566.7074 452.7774,-555.539 437.9501,-545.7449"/>
<polygon fill="#c0c0c0" stroke="#c0c0c0" stroke-width="2" points="439.7726,-542.7541 429.4996,-540.1628 435.9145,-548.5949 439.7726,-542.7541"/>
</g>
<!-- 25 -->
<g id="node26" class="node">
<title>25</title>
<path fill="none" stroke="#d6d856" stroke-width="2" stroke-dasharray="5,2" d="M545.5853,-900C545.5853,-900 498.4208,-900 498.4208,-900 492.4208,-900 486.4208,-894 486.4208,-888 486.4208,-888 486.4208,-876 486.4208,-876 486.4208,-870 492.4208,-864 498.4208,-864 498.4208,-864 545.5853,-864 545.5853,-864 551.5853,-864 557.5853,-870 557.5853,-876 557.5853,-876 557.5853,-888 557.5853,-888 557.5853,-894 551.5853,-900 545.5853,-900"/>
<text text-anchor="middle" x="522.0031" y="-879" font-family="sans" font-size="10.00" fill="#000000">Sample_Flip</text>
</g>
<!-- 25&#45;&gt;21 -->
<g id="edge40" class="edge">
<title>25&#45;&gt;21</title>
<path fill="none" stroke="#c0c0c0" stroke-width="2" d="M550.435,-863.9601C562.2258,-854.7801 574.6235,-842.4872 581.0031,-828 587.4513,-813.3569 585.8322,-807.2538 581.0031,-792 577.9215,-782.2664 572.3848,-772.7695 566.4742,-764.5228"/>
<polygon fill="#c0c0c0" stroke="#c0c0c0" stroke-width="2" points="569.1279,-762.2316 560.2666,-756.4239 563.5721,-766.49 569.1279,-762.2316"/>
</g>
<!-- 26 -->
<g id="node27" class="node">
<title>26</title>
<path fill="none" stroke="#8fd856" stroke-width="2" stroke-dasharray="5,2" d="M559.9386,-828C559.9386,-828 454.0675,-828 454.0675,-828 448.0675,-828 442.0675,-822 442.0675,-816 442.0675,-816 442.0675,-804 442.0675,-804 442.0675,-798 448.0675,-792 454.0675,-792 454.0675,-792 559.9386,-792 559.9386,-792 565.9386,-792 571.9386,-798 571.9386,-804 571.9386,-804 571.9386,-816 571.9386,-816 571.9386,-822 565.9386,-828 559.9386,-828"/>
<text text-anchor="middle" x="507.0031" y="-807" font-family="sans" font-size="10.00" fill="#000000">Sample_ChromPosRefAlt</text>
</g>
<!-- 25&#45;&gt;26 -->
<g id="edge46" class="edge">
<title>25&#45;&gt;26</title>
<path fill="none" stroke="#c0c0c0" stroke-width="2" d="M518.2179,-863.8314C516.6137,-856.131 514.706,-846.9743 512.9232,-838.4166"/>
<polygon fill="#c0c0c0" stroke="#c0c0c0" stroke-width="2" points="516.3052,-837.4892 510.8392,-828.4133 509.4523,-838.9169 516.3052,-837.4892"/>
</g>
<!-- 26&#45;&gt;21 -->
<g id="edge41" class="edge">
<title>26&#45;&gt;21</title>
<path fill="none" stroke="#c0c0c0" stroke-width="2" d="M516.0874,-791.8314C520.0645,-783.8771 524.8185,-774.369 529.2169,-765.5723"/>
<polygon fill="#c0c0c0" stroke="#c0c0c0" stroke-width="2" points="532.4547,-766.9228 533.7964,-756.4133 526.1937,-763.7923 532.4547,-766.9228"/>
</g>
<!-- 27 -->
<g id="node28" class="node">
<title>27</title>
<path fill="none" stroke="#d89c56" stroke-width="2" stroke-dasharray="5,2" d="M387.7789,-756C387.7789,-756 318.2273,-756 318.2273,-756 312.2273,-756 306.2273,-750 306.2273,-744 306.2273,-744 306.2273,-732 306.2273,-732 306.2273,-726 312.2273,-720 318.2273,-720 318.2273,-720 387.7789,-720 387.7789,-720 393.7789,-720 399.7789,-726 399.7789,-732 399.7789,-732 399.7789,-744 399.7789,-744 399.7789,-750 393.7789,-756 387.7789,-756"/>
<text text-anchor="middle" x="353.0031" y="-735" font-family="sans" font-size="10.00" fill="#000000">Reference_prune</text>
</g>
<!-- 26&#45;&gt;27 -->
<g id="edge48" class="edge">
<title>26&#45;&gt;27</title>
<path fill="none" stroke="#c0c0c0" stroke-width="2" d="M468.1424,-791.8314C447.7288,-782.2874 422.5308,-770.5065 400.9171,-760.4013"/>
<polygon fill="#c0c0c0" stroke="#c0c0c0" stroke-width="2" points="402.1255,-757.1027 391.5843,-756.038 399.1608,-763.4439 402.1255,-757.1027"/>
</g>
<!-- 27&#45;&gt;22 -->
<g id="edge42" class="edge">
<title>27&#45;&gt;22</title>
<path fill="none" stroke="#c0c0c0" stroke-width="2" d="M353.0031,-719.8314C353.0031,-712.131 353.0031,-702.9743 353.0031,-694.4166"/>
<polygon fill="#c0c0c0" stroke="#c0c0c0" stroke-width="2" points="356.5032,-694.4132 353.0031,-684.4133 349.5032,-694.4133 356.5032,-694.4132"/>
</g>
<!-- 28&#45;&gt;25 -->
<g id="edge45" class="edge">
<title>28&#45;&gt;25</title>
<path fill="none" stroke="#c0c0c0" stroke-width="2" d="M522.0031,-935.8314C522.0031,-928.131 522.0031,-918.9743 522.0031,-910.4166"/>
<polygon fill="#c0c0c0" stroke="#c0c0c0" stroke-width="2" points="525.5032,-910.4132 522.0031,-900.4133 518.5032,-910.4133 525.5032,-910.4132"/>
</g>
<!-- 29 -->
<g id="node30" class="node">
<title>29</title>
<path fill="none" stroke="#c6d856" stroke-width="2" stroke-dasharray="5,2" d="M347.4869,-900C347.4869,-900 290.5192,-900 290.5192,-900 284.5192,-900 278.5192,-894 278.5192,-888 278.5192,-888 278.5192,-876 278.5192,-876 278.5192,-870 284.5192,-864 290.5192,-864 290.5192,-864 347.4869,-864 347.4869,-864 353.4869,-864 359.4869,-870 359.4869,-876 359.4869,-876 359.4869,-888 359.4869,-888 359.4869,-894 353.4869,-900 347.4869,-900"/>
<text text-anchor="middle" x="319.0031" y="-879" font-family="sans" font-size="10.00" fill="#000000">Reference_flip</text>
</g>
<!-- 29&#45;&gt;27 -->
<g id="edge47" class="edge">
<title>29&#45;&gt;27</title>
<path fill="none" stroke="#c0c0c0" stroke-width="2" d="M297.6904,-863.7308C288.1897,-854.1756 278.0241,-841.6372 273.0031,-828 267.4749,-812.9854 265.4939,-806.1284 273.0031,-792 279.5845,-779.617 290.4123,-769.5593 302.0068,-761.63"/>
<polygon fill="#c0c0c0" stroke="#c0c0c0" stroke-width="2" points="303.959,-764.5365 310.5351,-756.2295 300.214,-758.6225 303.959,-764.5365"/>
</g>
<!-- 30 -->
<g id="node31" class="node">
<title>30</title>
<path fill="none" stroke="#56b9d8" stroke-width="2" stroke-dasharray="5,2" d="M412.1702,-828C412.1702,-828 293.836,-828 293.836,-828 287.836,-828 281.836,-822 281.836,-816 281.836,-816 281.836,-804 281.836,-804 281.836,-798 287.836,-792 293.836,-792 293.836,-792 412.1702,-792 412.1702,-792 418.1702,-792 424.1702,-798 424.1702,-804 424.1702,-804 424.1702,-816 424.1702,-816 424.1702,-822 418.1702,-828 412.1702,-828"/>
<text text-anchor="middle" x="353.0031" y="-807" font-family="sans" font-size="10.00" fill="#000000">Reference_ChromPosRefAlt</text>
</g>
<!-- 29&#45;&gt;30 -->
<g id="edge52" class="edge">
<title>29&#45;&gt;30</title>
<path fill="none" stroke="#c0c0c0" stroke-width="2" d="M327.5827,-863.8314C331.3389,-855.8771 335.8288,-846.369 339.9828,-837.5723"/>
<polygon fill="#c0c0c0" stroke="#c0c0c0" stroke-width="2" points="343.2027,-838.9503 344.3079,-828.4133 336.8729,-835.9612 343.2027,-838.9503"/>
</g>
<!-- 30&#45;&gt;27 -->
<g id="edge49" class="edge">
<title>30&#45;&gt;27</title>
<path fill="none" stroke="#c0c0c0" stroke-width="2" d="M353.0031,-791.8314C353.0031,-784.131 353.0031,-774.9743 353.0031,-766.4166"/>
<polygon fill="#c0c0c0" stroke="#c0c0c0" stroke-width="2" points="356.5032,-766.4132 353.0031,-756.4133 349.5032,-766.4133 356.5032,-766.4132"/>
</g>
</g>
</svg>
